<svg xmlns="http://www.w3.org/2000/svg" viewBox="0 0 192 192"><defs><style>.cls-1{fill:none;}.cls-2{fill:#754c24;}.cls-3{fill:#ccc;}</style></defs><title>horizontale1</title><g id="Calque_2" data-name="Calque 2"><g id="Calque_3" data-name="Calque 3"><rect class="cls-1" x="27.49" y="88" width="24.03" height="15"/><rect class="cls-1" x="57.52" y="88" width="24.03" height="15"/><polygon class="cls-1" points="177.66 108 177.66 112.5 171.66 112.5 171.66 108 147.63 108 147.63 112.5 141.62 112.5 141.62 108 117.59 108 117.59 112.5 111.58 112.5 111.58 108 87.56 108 87.56 112.5 81.55 112.5 81.55 108 57.52 108 57.52 112.5 51.52 112.5 51.52 108 27.49 108 27.49 112.5 21.48 112.5 21.48 108 0 108 0 192 192 192 192 108 177.66 108"/><polygon class="cls-1" points="21.48 78.5 27.49 78.5 27.49 83 51.52 83 51.52 78.5 57.52 78.5 57.52 83 81.55 83 81.55 78.5 87.56 78.5 87.56 83 111.58 83 111.58 78.5 117.59 78.5 117.59 83 141.62 83 141.62 78.5 147.63 78.5 147.63 83 171.66 83 171.66 78.5 177.66 78.5 177.66 83 192 83 192 0 0 0 0 83 21.48 83 21.48 78.5"/><rect class="cls-1" x="177.66" y="88" width="14.34" height="15"/><rect class="cls-1" x="117.59" y="88" width="24.03" height="15"/><rect class="cls-1" x="147.63" y="88" width="24.03" height="15"/><rect class="cls-1" x="87.56" y="88" width="24.03" height="15"/><rect class="cls-1" y="88" width="21.48" height="15"/><rect class="cls-2" x="51.51" y="88" width="6.01" height="15"/><rect class="cls-2" x="111.58" y="88" width="6.01" height="15"/><rect class="cls-2" x="81.55" y="88" width="6.01" height="15"/><rect class="cls-2" x="141.62" y="88" width="6.01" height="15"/><rect class="cls-2" x="171.66" y="88" width="6.01" height="15"/><rect class="cls-2" x="21.48" y="88" width="6.01" height="15"/><rect class="cls-2" x="111.58" y="108" width="6.01" height="4.5"/><rect class="cls-2" x="81.55" y="78.5" width="6.01" height="4.5"/><rect class="cls-2" x="141.62" y="108" width="6.01" height="4.5"/><rect class="cls-2" x="81.55" y="108" width="6.01" height="4.5"/><rect class="cls-2" x="111.58" y="78.5" width="6.01" height="4.5"/><rect class="cls-2" x="171.66" y="108" width="6.01" height="4.5"/><rect class="cls-2" x="141.62" y="78.5" width="6.01" height="4.5"/><rect class="cls-2" x="51.51" y="78.5" width="6.01" height="4.5"/><rect class="cls-2" x="51.51" y="108" width="6.01" height="4.5"/><rect class="cls-2" x="21.48" y="108" width="6.01" height="4.5"/><rect class="cls-2" x="21.48" y="78.5" width="6.01" height="4.5"/><rect class="cls-2" x="171.66" y="78.5" width="6.01" height="4.5"/><polygon points="192 83 177.66 83 171.66 83 147.63 83 141.62 83 117.59 83 111.58 83 87.56 83 81.55 83 57.52 83 51.52 83 27.49 83 21.48 83 0 83 0 84 192 84 192 83"/><polygon points="27.49 88 51.52 88 57.52 88 81.55 88 87.56 88 111.58 88 117.59 88 141.62 88 147.63 88 171.66 88 177.66 88 192 88 192 87 0 87 0 88 21.48 88 27.49 88"/><polygon points="192 103 177.66 103 171.66 103 147.63 103 141.62 103 117.59 103 111.58 103 87.56 103 81.55 103 57.52 103 51.52 103 27.49 103 21.48 103 0 103 0 104 192 104 192 103"/><polygon points="27.49 108 51.52 108 57.52 108 81.55 108 87.56 108 111.58 108 117.59 108 141.62 108 147.63 108 171.66 108 177.66 108 192 108 192 107 0 107 0 108 21.48 108 27.49 108"/><rect class="cls-3" y="84" width="192" height="3"/><rect class="cls-3" y="104" width="192" height="3"/></g></g></svg>