<svg xmlns="http://www.w3.org/2000/svg" viewBox="0 0 512.5 256.5"><defs><style>.cls-1,.cls-2{fill:none;}.cls-1,.cls-3,.cls-5{stroke:#000;stroke-miterlimit:10;}.cls-3{fill:#754c24;}.cls-4,.cls-5{fill:#ccc;}</style></defs><title>horizontale</title><g id="Calque_2" data-name="Calque 2"><g id="box"><rect class="cls-1" x="130.27" y="120" width="23.96" height="17"/><rect class="cls-1" x="100.32" y="120" width="23.96" height="17"/><rect class="cls-1" x="220.1" y="120" width="23.96" height="17"/><rect class="cls-1" x="160.21" y="120" width="23.96" height="17"/><rect class="cls-1" x="250.04" y="120" width="23.96" height="17"/><rect class="cls-1" x="40.44" y="120" width="23.96" height="17"/><rect class="cls-1" x="190.16" y="120" width="23.96" height="17"/><rect class="cls-1" x="70.38" y="120" width="23.96" height="17"/><rect class="cls-1" x="10.49" y="120" width="23.96" height="17"/><rect class="cls-1" x="309.93" y="120" width="23.96" height="17"/><rect class="cls-1" x="279.99" y="120" width="23.96" height="17"/><rect class="cls-1" x="399.76" y="120" width="23.96" height="17"/><rect class="cls-1" x="429.71" y="120" width="23.96" height="17"/><polygon class="cls-2" points="489.6 145.5 483.61 145.5 483.61 140 459.65 140 459.65 145.5 453.66 145.5 453.66 140 429.71 140 429.71 145.5 423.72 145.5 423.72 140 399.76 140 399.76 145.5 393.77 145.5 393.77 140 369.82 140 369.82 145.5 363.83 145.5 363.83 140 339.88 140 339.88 145.5 333.89 145.5 333.89 140 309.93 140 309.93 145.5 303.94 145.5 303.94 140 279.99 140 279.99 145.5 274 145.5 274 140 250.04 140 250.04 145.5 244.06 145.5 244.06 140 220.1 140 220.1 145.5 214.11 145.5 214.11 140 190.16 140 190.16 145.5 184.17 145.5 184.17 140 160.21 140 160.21 145.5 154.22 145.5 154.22 140 130.27 140 130.27 145.5 124.28 145.5 124.28 140 100.32 140 100.32 145.5 94.33 145.5 94.33 140 70.38 140 70.38 145.5 64.39 145.5 64.39 140 40.44 140 40.44 145.5 34.45 145.5 34.45 140 10.49 140 10.49 145.5 4.5 145.5 4.5 140 0 140 0 256.5 256 256.5 256.5 256.5 512.5 256.5 512.5 140 489.6 140 489.6 145.5"/><rect class="cls-1" x="459.65" y="120" width="23.96" height="17"/><rect class="cls-1" x="339.88" y="120" width="23.96" height="17"/><rect class="cls-1" x="369.82" y="120" width="23.96" height="17"/><polygon class="cls-2" points="0 117 4.5 117 4.5 111.5 10.49 111.5 10.49 117 34.45 117 34.45 111.5 40.44 111.5 40.44 117 64.39 117 64.39 111.5 70.38 111.5 70.38 117 94.33 117 94.33 111.5 100.32 111.5 100.32 117 124.28 117 124.28 111.5 130.27 111.5 130.27 117 154.22 117 154.22 111.5 160.21 111.5 160.21 117 184.17 117 184.17 111.5 190.16 111.5 190.16 117 214.11 117 214.11 111.5 220.1 111.5 220.1 117 244.06 117 244.06 111.5 250.04 111.5 250.04 117 274 117 274 111.5 279.99 111.5 279.99 117 303.94 117 303.94 111.5 309.93 111.5 309.93 117 333.89 117 333.89 111.5 339.88 111.5 339.88 117 363.83 117 363.83 111.5 369.82 111.5 369.82 117 393.77 117 393.77 111.5 399.76 111.5 399.76 117 423.72 117 423.72 111.5 429.71 111.5 429.71 117 453.66 117 453.66 111.5 459.65 111.5 459.65 117 483.61 117 483.61 111.5 489.6 111.5 489.6 117 512.5 117 512.5 0 256.5 0 256 0 0 0 0 117"/><rect class="cls-3" x="244.05" y="120" width="5.99" height="17"/><rect class="cls-3" x="214.11" y="120" width="5.99" height="17"/><rect class="cls-3" x="303.94" y="120" width="5.99" height="17"/><rect class="cls-3" x="393.77" y="111.5" width="5.99" height="5.5"/><rect class="cls-3" x="274" y="120" width="5.99" height="17"/><rect class="cls-3" x="184.17" y="120" width="5.99" height="17"/><rect class="cls-3" x="124.28" y="120" width="5.99" height="17"/><rect class="cls-3" x="483.61" y="111.5" width="5.99" height="5.5"/><rect class="cls-3" x="363.83" y="111.5" width="5.99" height="5.5"/><rect class="cls-3" x="154.22" y="120" width="5.99" height="17"/><rect class="cls-3" x="453.66" y="120" width="5.99" height="17"/><rect class="cls-3" x="94.34" y="120" width="5.99" height="17"/><rect class="cls-3" x="423.72" y="120" width="5.99" height="17"/><rect class="cls-3" x="483.61" y="120" width="5.99" height="17"/><rect class="cls-3" x="393.77" y="120" width="5.99" height="17"/><rect class="cls-3" x="453.66" y="111.5" width="5.99" height="5.5"/><rect class="cls-3" x="333.89" y="120" width="5.99" height="17"/><rect class="cls-3" x="363.83" y="120" width="5.99" height="17"/><rect class="cls-3" x="423.72" y="111.5" width="5.99" height="5.5"/><rect class="cls-3" x="4.5" y="120" width="5.99" height="17"/><rect class="cls-3" x="124.28" y="140" width="5.99" height="5.5"/><rect class="cls-3" x="214.11" y="140" width="5.99" height="5.5"/><rect class="cls-3" x="184.17" y="140" width="5.99" height="5.5"/><rect class="cls-3" x="244.05" y="140" width="5.99" height="5.5"/><rect class="cls-3" x="34.45" y="140" width="5.99" height="5.5"/><rect class="cls-3" x="274" y="140" width="5.99" height="5.5"/><rect class="cls-3" x="4.5" y="140" width="5.99" height="5.5"/><rect class="cls-3" x="64.39" y="140" width="5.99" height="5.5"/><rect class="cls-3" x="94.34" y="140" width="5.99" height="5.5"/><rect class="cls-3" x="453.66" y="140" width="5.99" height="5.5"/><rect class="cls-3" x="333.89" y="111.5" width="5.99" height="5.5"/><rect class="cls-3" x="483.61" y="140" width="5.99" height="5.5"/><rect class="cls-3" x="34.45" y="120" width="5.99" height="17"/><rect class="cls-3" x="64.39" y="120" width="5.99" height="17"/><rect class="cls-3" x="423.72" y="140" width="5.99" height="5.5"/><rect class="cls-3" x="363.83" y="140" width="5.99" height="5.5"/><rect class="cls-3" x="303.94" y="140" width="5.99" height="5.5"/><rect class="cls-3" x="333.89" y="140" width="5.99" height="5.5"/><rect class="cls-3" x="393.77" y="140" width="5.99" height="5.5"/><rect class="cls-3" x="154.22" y="140" width="5.99" height="5.5"/><rect class="cls-3" x="94.34" y="111.5" width="5.99" height="5.5"/><rect class="cls-3" x="214.11" y="111.5" width="5.99" height="5.5"/><rect class="cls-3" x="244.05" y="111.5" width="5.99" height="5.5"/><rect class="cls-3" x="124.28" y="111.5" width="5.99" height="5.5"/><rect class="cls-3" x="64.39" y="111.5" width="5.99" height="5.5"/><rect class="cls-3" x="154.22" y="111.5" width="5.99" height="5.5"/><rect class="cls-3" x="184.17" y="111.5" width="5.99" height="5.5"/><rect class="cls-3" x="34.45" y="111.5" width="5.99" height="5.5"/><rect class="cls-3" x="4.5" y="111.5" width="5.99" height="5.5"/><rect class="cls-3" x="303.94" y="111.5" width="5.99" height="5.5"/><rect class="cls-3" x="274" y="111.5" width="5.99" height="5.5"/><polygon class="cls-4" points="483.61 117 459.65 117 453.66 117 429.71 117 423.72 117 399.76 117 393.77 117 369.82 117 363.83 117 339.88 117 333.89 117 309.93 117 303.94 117 279.99 117 274 117 250.04 117 244.06 117 220.1 117 214.11 117 190.16 117 184.17 117 160.21 117 154.22 117 130.27 117 124.28 117 100.32 117 94.33 117 70.38 117 64.39 117 40.44 117 34.45 117 10.49 117 4.5 117 0 117 0 120 4.5 120 10.49 120 34.45 120 40.44 120 64.39 120 70.38 120 94.33 120 100.32 120 124.28 120 130.27 120 154.22 120 160.21 120 184.17 120 190.16 120 214.11 120 220.1 120 244.06 120 250.04 120 274 120 279.99 120 303.94 120 309.93 120 333.89 120 339.88 120 363.83 120 369.82 120 393.77 120 399.76 120 423.72 120 429.71 120 453.66 120 459.65 120 483.61 120 489.6 120 512.5 120 512.5 117 489.6 117 483.61 117"/><polygon class="cls-4" points="483.61 137 459.65 137 453.66 137 429.71 137 423.72 137 399.76 137 393.77 137 369.82 137 363.83 137 339.88 137 333.89 137 309.93 137 303.94 137 279.99 137 274 137 250.04 137 244.06 137 220.1 137 214.11 137 190.16 137 184.17 137 160.21 137 154.22 137 130.27 137 124.28 137 100.32 137 94.33 137 70.38 137 64.39 137 40.44 137 34.45 137 10.49 137 4.5 137 0 137 0 140 4.5 140 10.49 140 34.45 140 40.44 140 64.39 140 70.38 140 94.33 140 100.32 140 124.28 140 130.27 140 154.22 140 160.21 140 184.17 140 190.16 140 214.11 140 220.1 140 244.06 140 250.04 140 274 140 279.99 140 303.94 140 309.93 140 333.89 140 339.88 140 363.83 140 369.82 140 393.77 140 399.76 140 423.72 140 429.71 140 453.66 140 459.65 140 483.61 140 489.6 140 512.5 140 512.5 137 489.6 137 483.61 137"/><line class="cls-5" y1="140" x2="512.5" y2="140"/><line class="cls-5" y1="120" x2="512.5" y2="120"/><line class="cls-5" y1="117" x2="512.5" y2="117"/><line class="cls-5" y1="137" x2="512.5" y2="137"/></g></g></svg>