<svg xmlns="http://www.w3.org/2000/svg" viewBox="0 0 211.7 212.5"><defs><style>.cls-1,.cls-2,.cls-3,.cls-4{fill:none;stroke-miterlimit:10;}.cls-1,.cls-2{stroke:#754c24;stroke-width:34px;}.cls-2{stroke-dasharray:6 23.99;}.cls-3{stroke:#000;stroke-width:5px;}.cls-4{stroke:#ccc;stroke-width:3px;}</style></defs><title>rot</title><g id="Calque_2" data-name="Calque 2"><g id="Calque_3" data-name="Calque 3"><g id="Calque_1-2" data-name="Calque 1"><line class="cls-1" x1="17" y1="210" x2="17" y2="207"/><path class="cls-2" d="M17,183V145C17,74.78,74.78,17,145,17l49,.77"/><line class="cls-1" x1="206" y1="17.95" x2="209" y2="18"/><path class="cls-3" d="M27,210H7V145A138.62,138.62,0,0,1,145,7h.16l64,1-.32,20-63.92-1A118.13,118.13,0,0,0,27,145Z"/><path class="cls-4" d="M27,210H7V145A138.62,138.62,0,0,1,145,7h.16l64,1-.32,20-63.92-1A118.13,118.13,0,0,0,27,145Z"/><path class="cls-3" d="M27,210H7V145A138.62,138.62,0,0,1,145,7h.16l64,1-.32,20-63.92-1A118.13,118.13,0,0,0,27,145Z"/><path class="cls-4" d="M27,210H7V145A138.62,138.62,0,0,1,145,7h.16l64,1-.32,20-63.92-1A118.13,118.13,0,0,0,27,145Z"/></g></g></g></svg>