<svg xmlns="http://www.w3.org/2000/svg" viewBox="0 0 191.5 191.5"><defs><style>.cls-1{fill:none;}.cls-2{fill:#754c24;}.cls-3{fill:#ccc;}</style></defs><title>rotation</title><g id="Calque_2" data-name="Calque 2"><g id="Calque_3" data-name="Calque 3"><path class="cls-1" d="M94.41,119l-11.87-8.9a134.91,134.91,0,0,0-13.28,21.6l13.39,6.58A121.26,121.26,0,0,1,94.41,119Z"/><path class="cls-1" d="M80.29,143.45l-13.7-5.95a132.14,132.14,0,0,0-7.86,24.13l14.63,3.28A119.24,119.24,0,0,1,80.29,143.45Z"/><path class="cls-1" d="M166.75,57.69l2.71,14.74a120.54,120.54,0,0,1,21.46-1.93h.58v-15H191A135.58,135.58,0,0,0,166.75,57.69Z"/><path class="cls-1" d="M72.26,170.44l-14.77-2.58a134.69,134.69,0,0,0-2,23.14v.5h15V191A121.12,121.12,0,0,1,72.26,170.44Z"/><path class="cls-1" d="M113.83,98.53l-9.52-11.36c-1.36,1.14-2.71,2.31-4,3.51q-2.5,2.28-4.92,4.68-4.71,4.73-8.89,9.79l11.44,9.43A121.94,121.94,0,0,1,113.83,98.53Z"/><path class="cls-1" d="M190.89,75.5a115.69,115.69,0,0,0-20.53,1.84l.82,4.46c-1.69.31-3.4.67-5.08,1.06l-1-4.43a115,115,0,0,0-20.5,6.82l1.88,4.21c-1.58.7-3.16,1.45-4.7,2.22l-2.07-4.13A115.9,115.9,0,0,0,121.28,99l2.84,3.72c-1.38,1-2.75,2.14-4.07,3.25l-3-3.59a115.81,115.81,0,0,0-15.28,15.4l3.62,3c-1.1,1.33-2.19,2.71-3.22,4.1L98.41,122a115.92,115.92,0,0,0-11.28,18.49l4.15,2c-.76,1.55-1.5,3.14-2.19,4.72l-4.22-1.83A115.23,115.23,0,0,0,78.23,166l4.42,1c-.37,1.69-.72,3.4-1,5.09l-4.45-.78A115.37,115.37,0,0,0,75.5,191v.5h116v-116Z"/><path class="cls-1" d="M137.44,83.08l-6.7-13.34A136.38,136.38,0,0,0,109.26,83.2l9,11.81A120.37,120.37,0,0,1,137.44,83.08Z"/><path class="cls-1" d="M163.93,73.57,160.53,59A133.6,133.6,0,0,0,136.47,67l6.07,13.66A119.85,119.85,0,0,1,163.93,73.57Z"/><path class="cls-2" d="M142.54,80.69,136.47,67q-2.9,1.29-5.73,2.71l6.7,13.34Q140,81.84,142.54,80.69Z"/><path class="cls-2" d="M49.48,159.55c-.5,2.21-.94,4.45-1.33,6.67l4.41.77c.38-2.16.81-4.32,1.29-6.46Z"/><path class="cls-2" d="M79.14,99.11c-1.43,1.74-2.84,3.53-4.19,5.33l3.59,2.69q2-2.62,4.07-5.16Z"/><path class="cls-2" d="M103.51,75.66c-1.79,1.36-3.57,2.78-5.29,4.23l2.88,3.45c1.69-1.42,3.39-2.79,5.13-4.11Z"/><path class="cls-2" d="M132.63,58.39c-2.06.92-4.13,1.9-6.13,2.9l2,4q2.92-1.47,5.93-2.81Z"/><path class="cls-2" d="M82.65,138.31l-13.39-6.58q-1.41,2.85-2.67,5.77l13.7,5.95C81,141.72,81.82,140,82.65,138.31Z"/><path class="cls-2" d="M81.64,172.08c.29-1.69.64-3.4,1-5.09l-4.42-1q-.57,2.63-1,5.3Z"/><path class="cls-2" d="M118.26,95l-9-11.81c-1.67,1.28-3.32,2.61-5,4l9.52,11.36C115.28,97.32,116.75,96.15,118.26,95Z"/><path class="cls-2" d="M97.91,114.58l-11.44-9.43c-1.36,1.63-2.66,3.3-3.93,5L94.41,119Q96.11,116.76,97.91,114.58Z"/><path class="cls-2" d="M165,48.36c-2.22.41-4.46.87-6.66,1.39l1,4.36c2.14-.5,4.29-.94,6.46-1.34Z"/><path class="cls-2" d="M169.46,72.43l-2.71-14.74q-3.13.57-6.22,1.29l3.4,14.59Q166.68,72.94,169.46,72.43Z"/><path class="cls-2" d="M73.36,164.91l-14.63-3.28c-.46,2.06-.88,4.14-1.24,6.23l14.77,2.58Q72.74,167.65,73.36,164.91Z"/><path class="cls-2" d="M60.77,127.55c-1,2-2,4.1-2.86,6.18L62,135.5c.87-2,1.8-4,2.77-6Z"/><path class="cls-2" d="M141.75,91.68c1.54-.77,3.12-1.52,4.7-2.22l-1.88-4.21c-1.65.73-3.28,1.49-4.89,2.3Z"/><path class="cls-2" d="M120.05,106c1.32-1.11,2.69-2.2,4.07-3.25L121.28,99q-2.16,1.63-4.24,3.38Z"/><path class="cls-2" d="M89.09,147.28c.69-1.58,1.43-3.17,2.19-4.72l-4.15-2c-.79,1.62-1.54,3.27-2.26,4.93Z"/><path class="cls-2" d="M102.16,124.84c1-1.39,2.12-2.77,3.22-4.1l-3.62-3c-1.15,1.39-2.26,2.82-3.35,4.27Z"/><path class="cls-2" d="M166.1,82.86c1.68-.39,3.39-.75,5.08-1.06l-.82-4.46q-2.67.5-5.29,1.09Z"/><path d="M191,55.5h0Z"/><path d="M51.5,191A140.12,140.12,0,0,1,191,51.5h.5v-1H191a140,140,0,0,0-25.15,2.27c-2.17.4-4.32.84-6.46,1.34a138.34,138.34,0,0,0-25,8.35q-3,1.34-5.93,2.81a140.66,140.66,0,0,0-22.27,14c-1.74,1.32-3.44,2.69-5.13,4.11-3.19,2.68-6.29,5.5-9.27,8.49Q86.94,96.71,82.61,102q-2.1,2.53-4.07,5.16a139.86,139.86,0,0,0-13.77,22.39c-1,2-1.9,4-2.77,6a137.88,137.88,0,0,0-8.15,25c-.48,2.14-.91,4.3-1.29,6.46a140.81,140.81,0,0,0-2.06,24v.5h1Z"/><path d="M74.5,191v.5h1V191a115.37,115.37,0,0,1,1.69-19.7q.47-2.67,1-5.3a115.23,115.23,0,0,1,6.64-20.55c.72-1.66,1.47-3.31,2.26-4.93A115.92,115.92,0,0,1,98.41,122c1.09-1.45,2.2-2.88,3.35-4.27A115.81,115.81,0,0,1,117,102.36q2.08-1.74,4.24-3.38a115.9,115.9,0,0,1,18.4-11.43c1.61-.81,3.24-1.57,4.89-2.3a115,115,0,0,1,20.5-6.82q2.63-.6,5.29-1.09a115.69,115.69,0,0,1,20.53-1.84h.61v-1h-.6A116.64,116.64,0,0,0,74.5,191Z"/><path d="M99.61,89.94q-2.52,2.3-5,4.72A135.46,135.46,0,0,0,54.5,191v.5h1V191a134.69,134.69,0,0,1,2-23.14c.36-2.09.78-4.17,1.24-6.23a132.14,132.14,0,0,1,7.86-24.13q1.26-2.92,2.67-5.77a134.91,134.91,0,0,1,13.28-21.6c1.27-1.68,2.57-3.35,3.93-5q4.19-5.07,8.89-9.79,2.42-2.4,4.92-4.68c1.32-1.2,2.67-2.37,4-3.51,1.63-1.36,3.28-2.69,5-4a136.38,136.38,0,0,1,21.48-13.46q2.83-1.42,5.73-2.71A133.6,133.6,0,0,1,160.53,59q3.09-.72,6.22-1.29A135.58,135.58,0,0,1,191,55.5h.51v-1H191A135.21,135.21,0,0,0,99.61,89.94Z"/><path d="M169.46,72.43q-2.79.51-5.53,1.14a119.85,119.85,0,0,0-21.39,7.12q-2.58,1.14-5.1,2.39A120.37,120.37,0,0,0,118.26,95c-1.51,1.14-3,2.31-4.43,3.52a121.94,121.94,0,0,0-15.92,16q-1.8,2.19-3.5,4.45a121.26,121.26,0,0,0-11.76,19.28c-.83,1.7-1.61,3.41-2.36,5.14a119.24,119.24,0,0,0-6.93,21.46q-.61,2.75-1.1,5.53A121.12,121.12,0,0,0,70.5,191v.5h1V191A119.65,119.65,0,0,1,190.92,71.5h.58v-1h-.58A120.54,120.54,0,0,0,169.46,72.43Z"/><path class="cls-3" d="M71.5,191v.5h3V191A116.64,116.64,0,0,1,190.9,74.5h.6v-3h-.58A119.65,119.65,0,0,0,71.5,191Z"/><path class="cls-3" d="M191,51.5A140.12,140.12,0,0,0,51.5,191v.5h3V191A135.46,135.46,0,0,1,94.66,94.66q2.43-2.43,5-4.72A135.21,135.21,0,0,1,191,54.5h.5v-3H191Z"/><line class="cls-1" x2="16"/></g></g></svg>