<svg xmlns="http://www.w3.org/2000/svg" width="127px" height="156px" preserveAspectRatio='xMinYMin' viewBox="0 0 442.2 361.05"><defs><style>.cls-1{fill:#fff;}</style></defs><title>train</title><g id="Calque_2" data-name="Calque 2"><g id="Calque_2-2" data-name="Calque 2"><path d="M0,197.26,3.12,192c3.22-5.39,6.12-11,9.76-16.09A59.67,59.67,0,0,1,23,165a27,27,0,0,1,14.87-6.47c6.24-.61,11.1-3.72,13.42-9.65a56.65,56.65,0,0,0,2.9-11.69,12.57,12.57,0,0,1,8.12-9.28c3.82-1.21,7.69-2.31,11.39-3.81a95.75,95.75,0,0,0,8.72-4.49c4.08-2.15,5.63-6.25,7.77-10a11.13,11.13,0,0,1,3.7-4.25c2.45-1.35,5.28-2,7.95-3,3-1.09,6.17-2,9.07-3.37a101.91,101.91,0,0,0,11.59-6.28c4.31-2.77,8.38-5.93,11.4-10.2,3.42-4.85,6.69-9.8,10.31-14.48a32.08,32.08,0,0,1,10.95-9.38c1.77-.87,3.48-1.85,5.29-2.61,7.23-3,14.83-4.27,22.61-5.13,5.75-.64,11.76-1.11,16.82-4.49a27.27,27.27,0,0,0,5.42-4.87,35.56,35.56,0,0,1,9.37-8.39c3.36-1.9,6.67-3.9,10.07-5.74a27,27,0,0,1,16.56-2.81,29.7,29.7,0,0,0,9.81-.89c5.25-1.19,9.39-4.46,13.52-7.81C270.4,11.33,276.32,6.77,283,3.37,288,.84,293.48-.92,298.87.52c6.6,1.75,13.08,4.24,17.2,10.55a37.65,37.65,0,0,0,7.59,9.07c2.94,2.33,6.78,3.57,10.3,5.1,2.9,1.27,3.42,2.36,2.39,5.28a15.42,15.42,0,0,0-.92,4.6c-.14,3.91-.06,7.83-.07,11.75,0,3.46.44,4,3.54,5.23,5.62,2.23,11.42,4.16,16.72,7a60.33,60.33,0,0,1,11.32,8.57,58.24,58.24,0,0,1,8.93,9.65,149.64,149.64,0,0,1,8.44,14.6,62.13,62.13,0,0,1,3.28,7.58,62.83,62.83,0,0,1,4.25,24.94c-.18,4.4-1.26,8.78-2,13.15-1.56,8.74-5.44,16.55-9.57,24.31-.88,1.66-.59,4.42.09,6.34,2,5.57,4.49,10.95,6.66,16.45,1.1,2.78,1.9,5.67,2.86,8.5S392,197,395.2,197h17.27c2.48,0,3.28,1.12,3,4.12-.22,2.61-1.44,3.58-3.78,3.45-2.86-.16-5.75,0-8.57,0a9.26,9.26,0,0,0-.16,1.11c-.28,6.48-.25,6.42,5.71,9.17,7.6,3.52,11.31,9.53,11.63,17.91a18.49,18.49,0,0,1-6,14.9c-2.73,2.51-6.32,4.17-9.72,5.78a3,3,0,0,0-2,3.06c-.05,2.94,0,5.88,0,8.81s.6,3.63,3.3,3.64q8.63,0,17.27,0c.69,0,1.39-.09,2.53-.17-.92-6.95,1.32-13.91-1.44-20.64a3.44,3.44,0,0,1,1.58-4.34c.85-.53,2.81-.54,3.42.08.93.92,1.92,3,1.47,3.85-2.56,4.47-1.08,9.19-1.42,13.78,0,.48,0,1,0,1.44-.35,6-.35,6,5.74,6h7.16v31.56c-6.86,1.47-13.73,2.92-20.59,4.43-1.78.39-3.52,1-5.3,1.39-2.92.69-5.88,1.22-8.79,2s-3.44,1.84-2.13,4.65c2.33,5,2.9,10.4,3.17,15.75a23.89,23.89,0,0,1-1.5,9.59c-1.43,3.68-3.77,7-5.83,10.43-1.82,3-4.92,3.49-8.05,3.66-10.12.54-20.23,1-30.34,1.54-11.55.61-23.09,1.2-34.63,1.91s-23.37,1.62-35.06,2.38c-5.56.37-11.14.53-16.7.95-6.89.53-13.76,1.39-20.65,1.78-2.68.15-5.29.43-8.14-1.16-4.83-2.71-10.27-4.33-15.44-6.43-2.26-.92-4.49-1.9-6.74-2.84-8.13-3.42-16.28-6.8-24.4-10.24-5.36-2.28-10.66-4.71-16-7-4.48-1.89-9-3.59-13.53-5.44-3.21-1.31-6.35-2.78-9.55-4.12-5.09-2.14-10.2-4.23-15.31-6.34-2.19-.9-4.41-1.75-6.59-2.68-4.93-2.11-9.82-4.3-14.77-6.36-5.3-2.21-10.67-4.25-16-6.47-4.93-2.06-9.77-4.33-14.7-6.39s-10.08-4-15.12-6c-2.55-1-5.07-2.14-7.6-3.22-7.11-3.05-14.21-6.13-21.33-9.15-8.71-3.69-17.47-7.25-26.12-11.07-1.22-.54-2.21-2.15-2.76-3.49a15.71,15.71,0,0,1-.56-4.49Q20,244.38,18.82,230.7a5.55,5.55,0,0,1,2.87-5.18c6.6-4.37,13.29-8.6,20-12.81,4.52-2.82,9.17-5.44,13.69-8.27,4.8-3,9.49-6.18,14.25-9.23,4.24-2.72,8.51-5.36,12.75-8.06,3.62-2.31,7.18-4.71,10.82-7,2.34-1.46,4.57-3,7.67-1.24a4.62,4.62,0,0,0,5.12-.68c4.29-3.32,8.8-6.37,13.19-9.56,2-1.48,4-3,5.95-4.59a10.88,10.88,0,0,1,8.83-2.63c2,.28,3.36-.2,3.33-2.74-.06-4.68,0-4.74-3.16-4.95a13,13,0,0,1-3-1c1.24-1,2.12-1.78,3-2.51,1.47-1.17,3.05-2.23,4.42-3.51,3.39-3.15,6.64-6.44,10-9.59,2.47-2.28,5.47-4.12,7.46-6.74,1.27-1.67,2-3.17,4.34-3.27.42,0,1.24-1.22,1.11-1.57a14.28,14.28,0,0,0-2.11-2.84c4.41-3.43,8.91-7.24,13.74-10.58A61,61,0,0,1,185,105.52c6.88-2.73,13.91-5.27,21.49-5.44a63.9,63.9,0,0,0,6.91-.54,2.67,2.67,0,0,0,1.9-1.17c2.66-6.56,7.87-10.08,14.29-12.17,1.79-.59,3.88-.62,5.4-1.58a8.44,8.44,0,0,0,2.87-4c.95-2.38,1.24-5,2.24-7.41,2.29-5.44,6.7-8.43,12.24-10.11a33.43,33.43,0,0,1,15.55-1A6.15,6.15,0,0,0,275,56.22a15.38,15.38,0,0,1,.48-3.51c1.39-4.94,6.32-4.88,8.83-2.83a3.84,3.84,0,0,0,2.1.77c1.83.11,3.67.06,5.51,0,3.29,0,4-.54,4-3.87,0-5.39.79-10.81-1.12-16.12-.56-1.55.07-3.51.18-5.89-2.42.47-5.45.38-7.74,1.63a96,96,0,0,0-15.07,9.82c-3.48,2.88-6.13,6.83-8.88,10.5-5.5,7.35-12.76,11.38-21.81,12.61-7.2,1-14.17,3.07-20,7.5a34.19,34.19,0,0,0-8.93,10.37C208,85.12,201,89.72,192.1,91.43c-3.73.71-7.58.78-11.3,1.52-9.14,1.81-16.88,6-22.9,13.37a39.06,39.06,0,0,1-15.34,11.73c-4.94,2-10,3.68-15.12,5.35a44.5,44.5,0,0,0-19.92,12.87,163,163,0,0,0-10.16,12.95c-4.91,6.87-11,10.59-19.8,9.05a50.06,50.06,0,0,0-11.08-.53c-3.2.16-5.44,2.36-7.5,4.79q-5.83,6.9-12.06,13.44c-2.91,3.07-6.49,3.62-10.44,2-5.93-2.41-11.42-1.53-16,2.89-3.4,3.27-6.27,7.1-9.68,10.37a48.24,48.24,0,0,1-7.33,5.28C2.72,197,1.65,196.93,0,197.26Zm54.21,15.06a5.29,5.29,0,0,0,1.86-.21c8.14-4.44,16.24-8.94,24.37-13.39,4.27-2.35,8.59-4.62,12.86-7a11.11,11.11,0,0,0,1.88-1.64l-.41-.77a7.45,7.45,0,0,0-2.26.48c-5.53,3.18-11,6.5-16.53,9.67-6.48,3.7-13,7.27-19.54,11a13.64,13.64,0,0,0-2.18,1.93L49,214.62l.34.66A7,7,0,0,0,54.21,212.32ZM130,165.94c-2.9,2-5.26,3.66-7.71,5.21q-9,5.68-18,11.26a4.86,4.86,0,0,0-2.45,5.18c.43,4,.67,8.09.9,12.14.39,6.9.66,13.82,1.09,20.72.55,8.9,1.2,17.79,1.8,26.68.16,2.38.36,4.77.4,7.15,0,2.16,1.25,2.83,3.09,2.65,3.47-.33,6.94-.73,10.4-1.18,5.27-.69,10.53-1.5,15.81-2.11a2.36,2.36,0,0,0,2.4-2.65c0-1.66-.31-3.32-.43-5-.36-5-.61-10-1.07-15-.51-5.7-1.29-11.37-1.81-17.07-.44-4.9-.62-9.84-1-14.75q-1.12-13.31-2.38-26.6C130.76,170.49,130.34,168.42,130,165.94Zm113.37-65.66L233,108.55c-3.73,3-7.44,6-11.18,9-4.76,3.78-9.55,7.53-14.31,11.31-3.93,3.11-7.64,6.53-11.78,9.32-5.68,3.84-9,8.92-11.28,15.38-2.68,7.55-2.74,15-1.92,23a18.47,18.47,0,0,0,2-.83c2.59-1.46,5.28-2.78,7.72-4.47,2.75-1.92,7.14-.76,8.78-4.72.07-.18.59-.15.88-.26,4.94-2,9.92-4,14.82-6.16s9.63-4.35,14.41-6.59c3.44-1.61,6.88-3.22,10.18-5.08a3.43,3.43,0,0,0,1.22-2.89c-.47-2.54-1.45-5-2.09-7.5-2.38-9.48-3-19,.19-28.43C241.6,106.8,242.31,103.9,243.34,100.28Zm-79.48,28.27c-1,.83-1.54,1.2-2,1.62-2.92,2.69-5.79,5.42-8.75,8.07-3.79,3.38-7.66,6.67-11.43,10.07a3.11,3.11,0,0,0-1,2.06c.07,3.43.18,6.85.5,10.26.69,7.36,1.59,14.7,2.25,22.07.48,5.31.64,10.64,1.09,16,.87,10.3,1.87,20.59,2.76,30.88.55,6.27.95,12.54,1.48,18.8.13,1.5.86,2.62,2.66,2.28,6.07-1.14,12.13-2.36,18.21-3.41,2.08-.36,2.8-1.33,2.68-3.37-.28-4.46-.37-8.93-.61-13.38-.11-2.15-.38-4.28-.55-6.43q-.91-11.18-1.79-22.36c-.23-3-.35-6-.59-9-.59-7.37-1.23-14.73-1.82-22.09-.38-4.76-.69-9.53-1.07-14.29-.58-7.45-1.2-14.9-1.79-22.35C164,132.3,164,130.73,163.86,128.55ZM294.48,54.74l-.72.22a66.18,66.18,0,0,0-22,12.14,59.2,59.2,0,0,0-14.7,17.05c-3.06,5.57-5.47,11.51-8,17.34-.4.92-.07,2.14-.14,3.22a20,20,0,0,1-.35,3.46c-.6,2.41-1.61,4.75-2,7.18-1.39,8.83.53,17.4,2.63,25.86.92,3.71,2.89,7.16,4.28,10.76,2.47,6.38,6.51,11.83,11,16.79a67.76,67.76,0,0,0,19,14.77,74.38,74.38,0,0,0,17.94,6.56c8.46,2,16.91,2.77,25.54,1.26a85.1,85.1,0,0,0,17.35-4.77c2.37-1,4.62-2.22,6.93-3.34a3.84,3.84,0,0,0-2.33.15c-4.42,1.2-8.79,2.59-13.26,3.52-2.82.59-5.8.34-8.67.76a45.41,45.41,0,0,0-5.46,1.63c-1.77.49-3.55-1.92-5.37,0-.1.1-.71,0-.84-.24-2-3.05-3.86-2.25-5.67.21-.16.21-.58.22-.87.31-1.81-4-1.81-4-4-2.79l-1.57-2-.41.64-3.46,1.73c-.16-1.34,0-2.78-.4-2.93a4.85,4.85,0,0,0-2.77.2,12.41,12.41,0,0,0-2.29,1.09c-.1-1.63,1.32-3.64-1-4.2-1.34-.33-2.92.28-4.47.47.63-2.63-2.21-2.69-3.49-4-1.94-2-3.65,0-5.64.61.24-1.8.46-3.37.67-4.94l-.63-.21-1.73,2.17a26.8,26.8,0,0,1-1.66-2.82c-.56-1.27-1-2.61-1.65-4.48-1.19,1.65-1.88,2.6-2.82,3.92v-6.36c-.5,1.31-.83,2.2-1.17,3.09-1.59-5.5-2.77-10.83-9.34-12.65,2.92-1,3.2-1.43,1.69-3.61-1.65-2.4-3.6-4.6-5.63-7.16.23-.86,1.2-2.48.83-3.69s-2-2.11-3.15-3.13c.51-.66,1.07-1.39,1.71-2.2l-3.5-2.49c.76-.87,3-1.27,1.12-2.76-1.26-1-1.15-1.76-.55-3,1.11-2.37.44-4.34-1.71-5.79-.56-.38-1.1-.8-1.93-1.4a19.92,19.92,0,0,1,2.37-.52c2-.15,2-1.13.83-2.26s-1-2.26-.19-3.54c.45-.69,1.14-1.94.88-2.25-1.33-1.64,0-2.95.19-4.4a15.87,15.87,0,0,0-.11-3.22l-.8-.12,2.79-2.55-2.21-2,2.77-.4-1.92-2.77a8.36,8.36,0,0,1,1.23-.48c.61-.15,1.24-.23,1.86-.33a7.58,7.58,0,0,1-1-1.54c-.19-.54-.37-1.57-.14-1.7,2.72-1.62,3.69-3.91,2.74-6.75l3.26-1-.67-.42c.15-1,0-2.55.49-2.79,1.89-.91,2.47-2,1.71-4-.18-.47.11-1.12.24-2.2l1.69,2.09C273.8,67.94,283.51,60.61,294.48,54.74Zm-140,226.43-.69.91c.59.57,1.1,1.48,1.78,1.64,3.38.78,6.81,1.35,10.21,2,4.77.94,9.53,1.91,14.57,2.93-2.41,3.12-4.6,5.64-9.21,3.24,1.49,4.81-3,4.31-4.35,6.8l5.54-1.16-1.47,2.67c2.13.82,2.61,2.5,2.39,4.45-.44,4-.73,8-1.56,12a5.67,5.67,0,0,1-3.12,3.46A4.29,4.29,0,0,1,164.6,319a28.33,28.33,0,0,1-5.29-15.66c0-3,0-6,0-9h-1c0,4-.24,8,.06,12,.41,5.48,2.76,10.32,6,14.73a4.85,4.85,0,0,0,8,.05,18.74,18.74,0,0,0,3.09-7.21c.62-4,.34-8.2.67-12.3a5,5,0,0,1,1.63-3.32c1.34-1,3.12-1.41,4.82-2.11a8,8,0,0,1,.17,1.16c-.13,5.62-.59,11.26-.34,16.86A26.51,26.51,0,0,0,189.49,331a6.08,6.08,0,0,0,10.38-1.61c3.36-7.22,3.08-14.81,2.17-22.43a24.27,24.27,0,0,0-1.71-6.15c-.28-.71-1.49-1-2.28-1.54a6.18,6.18,0,0,0-.4,2.17c1.52,8,2.52,16,0,24a2.82,2.82,0,0,1-1.44,1.62c-.41.16-1.27-.34-1.7-.78a19.31,19.31,0,0,1-5-9.12c-1.22-5-2.21-9.92-1.5-15.08a33.69,33.69,0,0,0,0-4.2,6.35,6.35,0,0,0-.76,1.41c-1.16,6.68-1.12,13.39,1.11,19.78a23.8,23.8,0,0,0,5.41,8.43c1.11,1.15,1.1,1.61.85,2.63-3.46,1-5.58-1.5-7.09-4.39a36.86,36.86,0,0,1-4.23-18.56c.13-3.54,1.05-7,1.33-10.58.32-4.15,4.65-6.09,8-5.36,3.63.8,7.31,1.39,11,2.05,1.95.36,3.9.66,5.86,1s2.25-1.16,2.57-2.45c.39-1.55-.85-1.91-2-2.14-.93-.19-1.92-.07-2.86-.23-4.49-.73-9-1.51-13.76-2.33,1.44-1.76,2.73-3.13,3.76-4.67a34.13,34.13,0,0,0,3-5.31c2.31-5.34,4.65-6.92,10.64-6.9,2,0,4,.13,6,0,.69-.05,1.87-.72,1.88-1.14,0-1-.31-2.85-.79-2.94-2.94-.58-5.76-2.51-9-.85-.94.48-2.36.13-3.55,0-2.49-.24-5-.95-7.45-.82-4.18.23-8.32,1.33-12.49,1.41-10.63.21-21.27.06-31.9.09a16.33,16.33,0,0,0-2.57.4l0,.6a14.6,14.6,0,0,0,2.25.42q11.82.51,23.65,1c4,.16,8,.09,12,.57,2.41.3,4.72,1.45,7.79,2.45-3.46,4.55-6.33,8.64-9.58,12.4a6.05,6.05,0,0,1-4.43,1.72c-3.69-.23-7.36-1-11-1.58C165.82,283.1,160.14,282.13,154.45,281.17Zm177.44-195c-5.28,0-10.26,2.79-13.71,8.08-4.39,6.75-3.36,13.29,1,19.74,3.31,4.9,8.35,6,13.57,7.32,4.76,1.23,8-.49,10.82-3.78,1.27-1.47,2.28-3.17,3.43-4.75a15.66,15.66,0,0,0,1.42-17.24C345.35,89.56,340,86.18,331.89,86.17ZM187.33,250.75l.53.83c-.62.36-1.21,1-1.86,1-9.93,1.17-19.87,2.26-29.8,3.4-2.29.26-4.57.61-6.84,1-.39.07-.72.56-1.07.86l.21.58c13.13-.5,26.16-2.92,39.36-2.2-12.82,2.84-26.11,1.79-38.93,4.61a3.26,3.26,0,0,0,1.65.38c8.45-.29,16.89-.75,25.34-.86,11.86-.15,23.67-1.88,35.57-1.07,5.23.35,5.23.35,4.75-5.61,0-.15-.15-.3-.16-.45-.08-5.39-.14-10.78-.23-16.18,0-.75,0-2-.34-2.15a3.15,3.15,0,0,0-2.6,0,21.53,21.53,0,0,0-3.15,2.94c-.11-.74-.24-1.54-.37-2.45-1.69.5-3.25,1.34-4.81,1.33a16.21,16.21,0,0,0-7.76,2c-1.53.79-3.06,1.55-4.89.22-1-.73-1.84-.12-2,1.36a15.28,15.28,0,0,1-1.16,5.43,5.26,5.26,0,0,1-3.37,2.5c-6.39,1.11-12.85,1.87-19.27,2.83q-7.87,1.19-15.71,2.58a9.37,9.37,0,0,0-2.56,1.37l.27.52ZM302.08,90.19l-.84-.65c-11.89,7.9-17.42,19.36-17.55,33.36-.17,17.95,10,31.57,27.68,38.19,11.89,4.47,28.75,1.53,35.62-5.71-3.86.48-7.92,1-12,1.46-1.56.16-3.16-.1-4.74,0-3.17.19-6.42-2.12-9.45.3L318.74,155l-3.26,1c-.22-1.08-.37-1.81-.5-2.4l-2.91.22c-.25-1-.46-1.88-.63-2.58l-3.54,1.89-.56-.51c1.5-1.79,2.31-3.88-.27-4.75-1.66-.56-3.77.19-6.14.4a18.36,18.36,0,0,0,2.35-2.8c.91-1.71-1.17-2.38-3.53-.88.64-2.84-.2-4.65-2.64-4.69-.17-1.84.2-3.73-.57-4.76-.92-1.22-2.82-1.7-4.6-2.67,1.29-.91,4.18-.9,2.61-3.32-.81-1.24-2.38-2-3.45-2.83.52-1,1.13-2,1.73-3.14l-3.64-1a14.54,14.54,0,0,1,1.47-1.54c2.16-1.74,2.13-2.61-.06-4.15a1.6,1.6,0,0,1-.36-1.52c3.05-3.61,3.08-3.6.35-7.21-.65-.86-.74-1.34.42-2,4.2-2.25,5.32-4.6,4.82-8.65ZM171.54,66.65l-.2-.6c-2.22,1-4.8-.36-6.92,1.72a4.58,4.58,0,0,1-2.81,1c-2.2.11-4.22.06-5.73,2.29-2.09,3.08-2.47,6.6-3.32,10-.51,2-.7,4.53-2,5.89-2.17,2.27-5.21,3.67-7.71,5.67s-6.45,2.39-7,6.48c0,.35-.62.78-1,.9-1.65.5-1.9,1.5-1.56,3.09.69,3.21-1,5.18-4.37,5.22a25.8,25.8,0,0,1-2.64,0,7.14,7.14,0,0,0-6.3,2.68,7.24,7.24,0,0,1-3.25,1.59c-2.12.63-4.46.71-6.41,1.65-4,1.94-5,6.5-7.65,9.67-.44.53.06,1.85.13,2.81,1.2-.15,2.72.1,3.53-.54a45.72,45.72,0,0,0,4.84-5c.92-1,1.79-2,2.67-3a33.15,33.15,0,0,0,3.81-.7c1.25-.37,2.38-1.24,3.64-1.5,2-.42,4.06-.47,6.08-.75,3.25-.45,5.87-1.41,7.55-4.85,1.48-3,4.1-5.53,6.37-8.14.45-.52,1.58-.44,2.39-.67s2-.31,2.56-.87c2-2,3.2-2.16,5.86-1a6.69,6.69,0,0,0,3.4.58c3.5-.45,4.46-4.06,4.23-7.63-.19-3-.55-6.16,0-9.18.21-1.05,1.36-1.88,2-2.89,1.81-3.09,3.39-6.33,5.38-9.3C168.24,69.5,170,68.17,171.54,66.65Zm68.9,142.45a9,9,0,0,1-6.49,6c-6.49,1.84-10.67,6.07-13.47,12.27-4.2,9.28-3.11,18.8-2.21,28.34.34,3.6,1.85,7.07,2.34,10.67a3.72,3.72,0,0,0,2.88,3.54,35.43,35.43,0,0,0,5.08.62l.61-.75-3.12-5.13a6.32,6.32,0,0,1-.47-3.71c.2-1.35-.14-2.2-1.45-2.51-2.68-.64-.11-1.32-.38-2.05-.27-.9-.49-2,0-2.52,1.41-1.68,0-2.4-.72-3.62-.6-1,.74-3-1.63-3.35a6.06,6.06,0,0,1-1.53-.84l3.1-.27c0-3.13-.05-6.08,0-9a4.54,4.54,0,0,1,.69-2.67c1.27-1.52.91-2.66-.06-3.41l2.93-4c1.46-2,2-4.56,4.09-6.15,1.14-.88,2.19-1.88,3.28-2.82.54-.48,1.61-.18,2.34-.55a22.83,22.83,0,0,0,4.84-3.14C243,212.31,242.83,211.16,240.44,209.1Zm8.74,103.75c2.63,6.53,2.1,13.24,2.33,19.91a28.8,28.8,0,0,1-3.11,14.92,9.29,9.29,0,0,1-4.56,4.09c-2.21.78-4-1.11-5.3-2.89a37.67,37.67,0,0,1-5.75-12.26c-2.69-9-2.53-18-1.24-27.13.07-.53-.41-1.13-.63-1.7-.38.41-1,.76-1.09,1.22a50.62,50.62,0,0,0-1.17,17.51,58.58,58.58,0,0,0,4.42,17.16c1.94,4.25,3.79,8.45,7.73,11.28,1.35,1,6.11,1.16,7.54.29a12.62,12.62,0,0,0,5.26-6.7,42.85,42.85,0,0,0,2.73-16.79c-.24-5.15.26-10.4-1.59-15.36C253.77,313.78,253.39,312.18,249.18,312.85ZM274.93,329c4.15-3.59,8.34-7,12.29-10.72s7.51-7.34,11.07-11.2a20.29,20.29,0,0,0,3.85-5.71c1.84-4.41,3.25-9,4.93-13.49.73-2,1.7-3.85,2.55-5.75-1.6-1.21-2.3-.52-2.9,1-1.33,3.27-2.78,6.49-4.18,9.73-3.16,7.33-8.26,13.25-13.69,18.94-1,1-2.09,1.81-3.14,2.71a30.7,30.7,0,0,1,3-4.87,34.78,34.78,0,0,0,3.44-5.87c1.79-4.53,3.18-9.22,4.91-13.78,1-2.63,2.35-5.14,3.55-7.71-2.44-.93-2.78-.72-3.09,1.68a6.71,6.71,0,0,1-.51,2.29c-3,5.87-6,11.77-9.12,17.54a92.47,92.47,0,0,1-6.71,10.78c-2.6,3.48-5.79,6.51-8.52,9.9-.46.57-.16,2.06.23,2.93C273.16,328.06,274.15,328.44,274.93,329Zm-61.77-25.59-.69-.07a8.25,8.25,0,0,0-.83,1.58c-3.23,12-1.73,23.07,5.89,33.11.35.45.71,1.42.51,1.63a2.15,2.15,0,0,1-1.78.66,8.25,8.25,0,0,1-3-1.79c-3.35-3.35-4.6-7.71-5.81-12.16a43.37,43.37,0,0,1-1.18-18.4c.33-2.1.69-4.19,1-6.28-1,.39-1.78,1-1.85,1.69-.64,6.24-1.68,12.44-.61,18.77,1.21,7.13,3.24,13.82,8.09,19.41,2.48,2.85,8,2.64,10.17-.44,3.34-4.78,4.16-10.33,4.71-15.88s-.91-11-2.26-16.46c-.65-2.64-1.91-3.69-4.55-3.24,2.92,10.71,4.09,21.37-.45,32.4-1.1-.69-2-1-2.48-1.59C211,326.27,211.35,315,213.16,303.43ZM250.48,45.78l-.45-.24c-5.64,1.67-11.26,3.4-16.92,5-4.49,1.25-9,2.39-13.55,3.39a9.52,9.52,0,0,1-3.73-.29c-1.16-.23-2.24-.91-3.4-1-.86-.09-2.25.1-2.61.67-1.59,2.52-2.84,5.25-4.31,7.84a59,59,0,0,1-5,8.2c-3.82,4.72-9.42,6.38-15.07,7.74-1.52.37-3.19.41-4.56,1.09a64.8,64.8,0,0,0-6.1,3.83l.08.85a5.82,5.82,0,0,0,2.27.2c5.3-1.8,10.5-3.94,15.87-5.5a19.29,19.29,0,0,0,11.21-7.87c1.29-1.93,2.39-4,3.51-6A14.11,14.11,0,0,1,218,56.52c2.87-.54,5.92-.14,8.8-.65C232,55,237.21,54.21,242,52.34,245.19,51.09,247.67,48,250.48,45.78Zm70.32-.18c-2.66-2.62,1.68-7-1-9.69a20.94,20.94,0,0,0-.05-3.94,41.21,41.21,0,0,0-1.69-4.86c-3.59-1.26-7.82-.11-11.43,1.08-.13,1.71.14,3.34-.46,4.52-.82,1.59-.91,2.64.35,3.95,1,1.06,1.47,2.33-.31,3.27a1.05,1.05,0,0,0-.52.72c0,2.5,0,5,0,7.92,2.6-1,4.72-1.47,6.74.08.28.22,1.05-.07,1.54-.26C316.23,47.5,318.48,46.55,320.8,45.6ZM260.61,65.13c-4.51-1.24-8.45.11-11.8,1.86a16.67,16.67,0,0,0-8.4,10.58,41.11,41.11,0,0,0-1.26,15.09,10.23,10.23,0,0,0,2.66-1c1.7-1.36,3.15-3,4.89-4.33,2.94-2.19,5.1-4.53,5.59-8.56C252.94,73.33,256.56,69.27,260.61,65.13ZM366.39,210.81l.3,0q-.31-2.72-.62-5.44l-2.43-22.74c-.16-1.46-.81-1.91-2.26-1.32-1.94.78-1.63,2.31-1.4,3.79.37,2.51.95,5,1.27,7.51,1,8.18,1.92,16.37,3,24.55,1,7.54,2.19,15,3.25,22.59.69,4.94,1.08,9.94,2,14.84s2.08,9.88-.37,14.86a3,3,0,0,0,1.3,4.33c1.94.9,4,.56,4.9-.94s.24-5.62-.82-6.63a6.39,6.39,0,0,1-2.14-3.29c-.82-6.06-1.36-12.15-2-18.23-.6-5.61-1.17-11.22-1.83-16.82S367.09,216.49,366.39,210.81ZM247,155.67c-.5-.72-.68-1.18-.84-1.17a18.21,18.21,0,0,0-4.06.37c-1.35.37-2.56,1.23-3.89,1.73-1.6.62-3.33.92-4.88,1.64-3.75,1.74-7.43,3.64-11.13,5.47-1.69.84-3.34,1.77-5.08,2.49-5,2.09-10.17,4-15.19,6.16-3.1,1.33-6,3.07-9.13,4.4-2.91,1.24-6,2.1-8.9,3.37-.48.21-.54,1.68-.51,2.56,0,.22,1.25.68,1.77.53a40.34,40.34,0,0,0,4.82-1.87q8.52-3.75,17-7.57c6.51-3,13-6,19.48-9,2.44-1.11,4.88-2.2,7.33-3.29l12.07-5.36Zm89.28,137a26.36,26.36,0,0,0-.43,3.13c0,4.31,0,8.61,0,12.92,0,3,1.3,4.88,4.25,5.76a27.12,27.12,0,0,0,3.74.48c2,.3,2.54-.77,2.54-2.45,0-4.47,0-8.93-.07-13.4a2.85,2.85,0,0,0-2.09-3C341.65,295.22,339.19,294,336.3,292.71Zm-31.78-25.23,1,0a31.44,31.44,0,0,0-.53-5.69c-2-7.39-4.28-14.72-6.44-22.07-1.29-4.4-2.65-8.79-3.86-13.22-1.95-7.15-3.79-14.33-5.71-21.5-1.46-5.48-3-11-4.46-16.45a3.93,3.93,0,0,0-4-2.84c.61,2.43,1.15,4.89,1.84,7.31q2.32,8.2,4.77,16.37,4.19,14,8.47,27.88c1.36,4.45,2.84,8.87,4.16,13.34C301.36,256.24,302.92,261.86,304.52,267.48Zm-39.15,9.13.08-.38c-10.76-.36-21.52-.69-32.27-1.11a60.84,60.84,0,0,1-6.84-.85c-1.79-.28-3.56-.95-5.34-.95a4.6,4.6,0,0,0-3.19,1.53c-.36.44.54,1.89.86,2.9.68,2.22,1.53,4.41,2,6.68.88,4.23,1.54,8.5,2.27,12.59h5.29c-3.22-4.81-2.45-9.87-2.22-15l1.42-.81-1.87-2.13c1.11-2.3,2.92-2.5,5.07-2.49C242.21,276.66,253.79,276.61,265.37,276.61Zm130.52-63.28c-12.18.68-20.41,12.89-18.34,23.49,1.73,8.86,11.07,18,17.6,16.33a40.55,40.55,0,0,1-4.41-2.49c-2.2-1.65-4.91-3.11-6.23-5.35a21.59,21.59,0,0,1-3.14-13.78c.43-3.47.64-6.85,3.18-9.64a16.89,16.89,0,0,0,2.08-3.64ZM253.19,43l.46.62a18.8,18.8,0,0,0,2.26-1.08c1.7-1.1,3.21-2.62,5-3.37,6.29-2.58,10.79-7.47,15.7-11.78a30.69,30.69,0,0,1,9.66-6.08c4.11-1.5,8.15-.63,12.2.31,1.3.3,2.7,1,3.92-.68-.37-.23-.59-.4-.83-.53s-.74-.3-1.08-.51c-5.38-3.15-11-3-16.65-1-4.76,1.75-8.31,5.28-12.05,8.5-4.78,4.1-9.44,8.35-14.21,12.46A53.08,53.08,0,0,1,253.19,43Zm-4.06,174.22c-10.33.7-18,10.75-17.29,21,.77,10.68,9.64,18.44,17.76,18.44a32,32,0,0,1-5.21-3.19,28.4,28.4,0,0,1-5.82-6.39c-2.59-4.35-2.88-9.34-2.46-14.3.17-2.08-.63-4.66,2.18-5.83.21-.09.19-.61.39-.84a41.67,41.67,0,0,1,4.47-5.06A51.26,51.26,0,0,1,249.13,217.25Zm6.26-54.17a35.4,35.4,0,0,0-1.5,3.65c-1.1,3.85-2,7.75-3.16,11.59-1.82,6.13-3.81,12.21-5.59,18.35a2.75,2.75,0,0,0,.74,2.47,1.83,1.83,0,0,0,2.85-1.1c.87-2.46,1.9-4.88,2.62-7.38,2-6.74,3.61-13.56,5.72-20.24A6.77,6.77,0,0,0,255.39,163.08ZM361.74,280.89H348.8l-17,0c-1.47,0-3,0-3.18,2-.28,3.33.8,6.36,2.51,6.52,1.9.16,4,.69,5.57-1.12,3.51-4.09,8.1-4.95,13.18-4.48C354.07,284.28,357.93,282.87,361.74,280.89ZM227.28,89.75c-8.31,5.68-12.31,14.87-8.89,22.56,1.86-1.59,3.61-3.14,5.41-4.63a4.64,4.64,0,0,0,1.61-4.93,14.22,14.22,0,0,1,1-8.79A26.1,26.1,0,0,0,227.28,89.75Zm106.38,32.41c-7.18-.81-13.59-2.24-17.64-8.16s-3.23-12.62-1.18-19.21c-3.83,3-5.85,11.07-3.87,16.47,2.7,7.38,8.32,12.25,16.73,12.27C329.61,123.53,332,124.57,333.66,122.16ZM138,291c.2,3,.38,6.61.68,10.23A18.14,18.14,0,0,0,144,312.76c2.32,2.33,3.62,2.36,6.09.21a7.89,7.89,0,0,0,2.12-3.2c2.55-7.28,3.08-14.57-.49-21.71-.35-.7-1.34-1.09-2-1.62l-.56.62c.59,2.2,1.23,4.38,1.74,6.6,1.36,5.91,1.09,11.67-2.07,17-1,1.62-3.43,2.11-4.49.73a17.32,17.32,0,0,1-3.21-5.85C139.78,300.55,138.92,295.42,138,291ZM299.86,27.8c1.49-.38,2.31-.68,3.15-.79,4.3-.57,8.59-1.44,12.91-1.55,6-.15,11.55,2.35,17.19,4.13.64.21,1.46-.16,2.2-.27-.31-.8-.39-2-1-2.34a24.55,24.55,0,0,0-4.35-1.7c-5.84-2.07-11.59-5-18-2a2.08,2.08,0,0,1-1.19.05C306.47,22.52,303.55,25.18,299.86,27.8ZM35.7,245.4l.18.46a21.37,21.37,0,0,0,3.1,0q16.92-2.58,33.83-5.25c7.82-1.24,15.64-2.52,23.44-3.89.6-.11,1.06-1,1.59-1.61-.67-.22-1.38-.73-2-.62q-11.1,1.84-22.18,3.88c-6.53,1.2-13,2.52-19.57,3.74C48,243.23,41.83,244.3,35.7,245.4Zm.86,15.73-.08.75c21.21,2.42,42.39,5.15,63.62,7.46l.39-1.22a6.53,6.53,0,0,0-2-1c-3.55-.42-7.12-.69-10.69-1L80,265.3c-5.62-.54-11.23-1.1-16.85-1.63-4.59-.43-9.19-.78-13.79-1.21C45.06,262.05,40.81,261.58,36.56,261.13Zm63.71,3c-2.17-1.32-63.61-5.68-68.43-4.95C37.64,260.88,98.57,265.42,100.27,264.09Zm-70.65-12.4.07.52c1.19,0,2.38,0,3.57,0l33.93-1.54,1-.06,27.9-1.8c1-.07,2.4.27,2.13-1.32-.07-.46-1.61-1-2.44-1-7.13.52-14.26,1.18-21.4,1.79-3.25.28-6.5.53-9.75.8-6.5.54-13,1.12-19.51,1.6C39.93,251.1,34.78,251.37,29.62,251.69Zm2.69-2,.12.74c4-.38,8.06-.8,12.1-1.11,5.15-.4,10.32-.63,15.47-1.05,9-.73,17.91-1.54,26.86-2.33,3.41-.3,6.82-.6,10.21-1,.48-.06.85-.89,1.27-1.37-.49-.25-1-.77-1.47-.73-5.68.53-11.36,1.13-17,1.73S68.61,245.71,63,246.34s-11.19,1.35-16.79,2C41.59,248.8,36.94,249.2,32.31,249.65ZM27,255.15V256H29.5l31.34.4c12.13.17,24.25.36,36.38.47.68,0,1.38-.63,2.06-1-.69-.31-1.38-.89-2.08-.89q-34-.06-68,0C28.45,255,27.71,255.1,27,255.15Zm14.11-1.84.06-.2h56.3c.08,0,.18,0,.23,0l1.52-1.21c-.49-.39-1-1-1.49-1.1a25.13,25.13,0,0,0-4.07,0q-14.82.69-29.64,1.43ZM36.69,234.7l.09.74c3.2-1,6.42-2,9.6-3,4.41-1.5,8.77-3.17,13.19-4.62,5.84-1.92,11.73-3.68,17.59-5.55,4.8-1.54,9.6-3.1,14.38-4.72a30.37,30.37,0,0,0,4.15-1.79c.35-.18.46-.85.68-1.29-.45-.15-1-.51-1.33-.4-1.81.55-3.58,1.2-5.35,1.86-3.62,1.35-7.22,2.79-10.87,4.08-5.94,2.09-11.94,4-17.88,6.13-4,1.41-8,3-12,4.46S40.78,233.32,36.69,234.7ZM39,263.42l-.07.46a2.45,2.45,0,0,0,.61.25c5.32.82,10.65,1.57,16,2.44,4.44.72,8.85,1.68,13.31,2.34,6.65,1,13.33,1.78,20,2.72,3.15.44,6.26,1.14,9.4,1.57,1.87.26,2,.07,1.78-1.85ZM32.7,247.87l.09.63,65.06-8.13-.11-2Zm6.65-5.4.08.53a16.68,16.68,0,0,0,3,0q13.05-2.44,26.09-5c5.9-1.15,11.77-2.42,17.67-3.56,3.26-.64,6.56-1.06,9.82-1.72.6-.12,1.07-.88,1.6-1.35a7.73,7.73,0,0,0-1.73-.76,5.94,5.94,0,0,0-2.14.1c-3.8.79-7.58,1.63-11.36,2.46-5.48,1.22-11,2.43-16.44,3.68-1.78.41-3.51,1-5.3,1.38C53.55,239.66,46.45,241.06,39.35,242.47Zm1.12-2.37.05.47a12,12,0,0,0,2.61,0q11.9-2.64,23.77-5.4c5.7-1.33,11.37-2.75,17-4.11,4.07-1,8.16-1.88,12.22-2.92.46-.12.76-.91,1.14-1.39-.61-.16-1.26-.56-1.8-.46-2.24.45-4.44,1-6.65,1.59l-25.44,6.56c-1.15.3-2.28.67-3.44,1Q50.23,237.74,40.47,240.1ZM94.73,193,39.85,222.33l.3.59c4-2,8.07-4,12.06-6.06,4.32-2.23,8.57-4.6,12.91-6.8,6-3,12-6,18-9a96,96,0,0,0,8.61-4.3C92.94,196.07,95.53,196,94.73,193Zm2.57,30.65v-1a6.66,6.66,0,0,0-2.11-.15c-3.27.87-6.51,1.88-9.77,2.78-7.14,2-14.29,3.89-21.42,5.85-5.17,1.42-10.33,2.82-15.47,4.32-2.44.71-4.82,1.62-7.22,2.44a5.51,5.51,0,0,0,3.1-.07c2.21-.62,4.39-1.38,6.62-2,8.24-2.12,16.49-4.18,24.74-6.26,5.79-1.47,11.59-2.92,17.37-4.44C94.56,224.78,95.91,224.16,97.3,223.65Zm-52.06-9.11.43.71c16.07-8.72,32-17.68,46.85-28.37l-.51-.83Zm-1.78,15.69.13.38a9.29,9.29,0,0,0,1.84-.29c5.75-2.14,11.48-4.38,17.25-6.49,6-2.2,12.14-4.28,18.2-6.46,4.67-1.68,9.33-3.39,14-5.19.59-.23.92-1.13,1.37-1.71a3.35,3.35,0,0,0-2.45-.32c-2.21.8-4.38,1.71-6.56,2.57l-13.6,5.36c-8.57,3.35-17.16,6.67-25.72,10C46.36,228.72,44.93,229.53,43.46,230.23ZM223.12,192c0,3.39,1.72,5.27,4.95,5.29a4.89,4.89,0,0,0,5.12-4.74c0-2.79-2.41-5.55-5-5.63A5.37,5.37,0,0,0,223.12,192ZM42.73,258.28l0-.21c7.62.42,15.25.81,22.87,1.27,6.67.41,13.33.94,20,1.36,4,.25,8.11.43,12.17.5.65,0,1.31-.73,2-1.12-.59-.41-1.14-1.09-1.76-1.17a64,64,0,0,0-6.91-.46c-8.78-.1-17.56-.13-26.34-.16C57.38,258.26,50.06,258.28,42.73,258.28Zm54.11-38.51c-.35-1.83-.9-2.16-2.48-1.55-4.34,1.69-8.76,3.2-13.19,4.63-6.38,2-12.81,3.93-19.19,5.93-4.3,1.35-8.56,2.79-12.83,4.18l-6,1.92.24.74ZM95.75,206l-.8-.35L44.4,227.24l.24.63c.8-.25,1.63-.43,2.4-.75,3.27-1.35,6.52-2.78,9.8-4.11,5.32-2.13,10.67-4.17,16-6.3,3.5-1.41,7-2.92,10.47-4.35,3.86-1.57,7.75-3.05,11.57-4.69C95.32,207.48,95.46,206.56,95.75,206ZM44.37,224.8l.26.69c.78-.28,1.58-.53,2.33-.87,3.38-1.51,6.72-3.09,10.11-4.57,4.31-1.87,8.66-3.62,13-5.5,3.18-1.4,6.28-3,9.46-4.37,4.82-2.1,9.7-4.07,14.51-6.18.67-.3,1.11-1.09,1.66-1.64l-.7-.93Zm0-2.42.34.75L95,199.3c0-.5-.11-1.16-.2-2.06ZM353.6,129.83a36.81,36.81,0,0,0,4.95-3.42c1.13-1.1.15-2.79-1.42-3.34a4.12,4.12,0,0,1-2.43-1.86c-1.46-4,.08-7.26,3.94-8.84.1,0,.12-.27.1-.22-.86-1.33-1.46-2.78-2.52-3.71a7.38,7.38,0,0,0-3.58-1.4c-.38-.05-1.37,1.16-1.38,1.8-.11,6-.06,11.93-.06,17.9h.44V110c1.91.34,2,1.58,2,2.91C353.6,118.36,353.6,123.78,353.6,129.83ZM205.46,121.1c3-.61,4.2-2.12,3.71-5a24,24,0,0,1,.06-4.06c0-3.07.07-6.15-.11-9.21,0-.46-1.7-1.33-1.85-1.19-.74.7-1.7,1.65-1.73,2.53C205.39,109.78,205.46,115.36,205.46,121.1ZM150.17,263.74l.09.46h2.84c11.42,0,22.83,0,34.24-.07a7.58,7.58,0,0,0,2.53-1c-.84-.59-1.65-1.23-2.53-1.75-.3-.17-.78,0-1.18,0-6.2.31-12.4.6-18.6.93q-7.74.42-15.49.92A8.87,8.87,0,0,0,150.17,263.74Zm96,83.35c-.44-.42-.91-.82-1.32-1.26-1.32-1.42-3-2.65-3.84-4.32a46.35,46.35,0,0,1-3.22-8.8c-1.76-6.57-2.62-13.22-.95-20a8.72,8.72,0,0,0-.31-2.91h-1a75.91,75.91,0,0,0-1.27,9.29,49.54,49.54,0,0,0,4.69,22.56C240.37,344.64,242.39,347,246.16,347.09Zm-117.58-65c2.94,7,3.22,13.55.63,18.9a3.92,3.92,0,0,1-2.56,2,3.56,3.56,0,0,1-3-1.35,38.24,38.24,0,0,1-2.74-7.71c-.62-2.62-.76-5.35-1.12-8a21.24,21.24,0,0,0-.3,6,23,23,0,0,0,4.27,11.39c2,2.64,5.77,2.4,7-.43a27.27,27.27,0,0,0,1.61-4.71c1.2-5,.43-9.89-1.26-14.74C130.62,281.85,130.15,281.47,128.58,282.1ZM269.85,87.26c-4-.16-5.6,1-6.94,4.21-.91,2.17.67,5.15,2.32,6.36,2.37,1.74,4.06,1.86,6,.4C268.42,95.28,267.89,91.48,269.85,87.26ZM227,203.64c-1.36-.46-2.49-.91-3.65-1.23a7.83,7.83,0,0,1-5.18-4.79c-2.32-5.48.25-11.11,5.82-13.3a21.78,21.78,0,0,0,2.47-1.33c-4.86,0-9,1.72-10.58,6.33-1.38,4.1-1,8.45,2.27,12A10.11,10.11,0,0,0,227,203.64Zm-27.4-1.38c0,2.07.5,2.74,2.08,2.09,3.9-1.6,7.87-3,11.72-4.73.55-.25.61-1.6.89-2.44-.76-.26-1.67-.92-2.27-.72q-5.34,1.83-10.53,4C200.61,200.87,200,201.86,199.59,202.26ZM416,271.34c-12-.37-24.12-.95-36.11.93l0,.77ZM214.49,190.56c-5.21,2.42-10.76,3.16-15.56,6.89,1.1.32,1.45.56,1.67.47,4.5-1.91,9-3.84,13.46-5.86C214.37,191.92,214.35,191.08,214.49,190.56ZM231.36,89l-3.31.61c.21,4.42.41,8.52.6,12.62h.64C230,97.85,230.66,93.47,231.36,89ZM166.8,316.19c-4.62-8.06-5.92-12-3.43-24.32C159,297.44,161.13,312.52,166.8,316.19Zm197.33-20.76-.73,0c-.16,1.22-.37,2.44-.46,3.66-.26,3.65-.51,7.29-.66,10.94,0,.47.55,1,.85,1.44.33-.36.95-.71,1-1.08C364.15,305.38,364.13,300.4,364.13,295.43Zm-13.44-7.94c4.17,2.11,7.8,4,11.5,5.73.43.21,1.22-.33,1.85-.52-.27-.56-.39-1.41-.83-1.64A34.18,34.18,0,0,0,350.69,287.49ZM203.3,208v.38a3.57,3.57,0,0,0,1.33.07c3.82-1.4,7.63-2.82,11.41-4.32.51-.2.84-.89,1.26-1.36-.63,0-1.34-.28-1.85-.06C211.38,204.39,207.35,206.2,203.3,208Zm-59.8,95.62a72,72,0,0,1-1.9-8.27,67.76,67.76,0,0,1-.07-8.14C140.17,289.88,139.84,300.82,143.5,303.59ZM123.14,293.2V283A10.65,10.65,0,0,0,123.14,293.2Zm203.12-25.11v.67h6.18c0-.23,0-.45,0-.67Zm20.43,0,.05.65h5.86l0-.65Zm-11-.06c0,.21,0,.41.07.62h4.89l0-.62Zm27.87.81c-2.67-1.79-3.8-1.71-5.11,0Z"/><path class="cls-1" d="M130,165.94c.37,2.48.79,4.55,1,6.65q1.25,13.29,2.38,26.6c.41,4.91.59,9.85,1,14.75.52,5.7,1.3,11.37,1.81,17.07.46,5,.71,10,1.07,15,.12,1.66.41,3.32.43,5a2.36,2.36,0,0,1-2.4,2.65c-5.28.61-10.54,1.42-15.81,2.11-3.46.45-6.93.85-10.4,1.18-1.84.18-3.06-.49-3.09-2.65,0-2.38-.24-4.77-.4-7.15-.6-8.89-1.25-17.78-1.8-26.68-.43-6.9-.7-13.82-1.09-20.72-.23-4-.47-8.11-.9-12.14a4.86,4.86,0,0,1,2.45-5.18q9-5.58,18-11.26C124.71,169.6,127.07,167.91,130,165.94Zm-2.2,7.45-.62,0a12.8,12.8,0,0,0-.43,2.9c.39,4.91,1,9.81,1.35,14.72.57,7.06,1,14.13,1.56,21.19q1.58,18.66,3.34,37.3a8.15,8.15,0,0,0,1.21,2.53,23.4,23.4,0,0,0,1.1-2.46,3.64,3.64,0,0,0,0-1.43C134.15,237.11,133,226,132,215c-.44-4.59-.68-9.2-1.1-13.79q-1.08-11.87-2.29-23.71A41.39,41.39,0,0,0,127.77,173.39Z"/><path class="cls-1" d="M243.34,100.28c-1,3.62-1.74,6.52-2.68,9.33-3.19,9.47-2.57,19-.19,28.43.64,2.52,1.62,5,2.09,7.5a3.43,3.43,0,0,1-1.22,2.89c-3.3,1.86-6.74,3.47-10.18,5.08-4.78,2.24-9.56,4.48-14.41,6.59s-9.88,4.12-14.82,6.16c-.29.11-.81.08-.88.26-1.64,4-6,2.8-8.78,4.72-2.44,1.69-5.13,3-7.72,4.47a18.47,18.47,0,0,1-2,.83c-.82-8-.76-15.46,1.92-23,2.29-6.46,5.6-11.54,11.28-15.38,4.14-2.79,7.85-6.21,11.78-9.32,4.76-3.78,9.55-7.53,14.31-11.31,3.74-3,7.45-6,11.18-9Z"/><path class="cls-1" d="M163.86,128.55c.1,2.18.13,3.75.25,5.33.59,7.45,1.21,14.9,1.79,22.35.38,4.76.69,9.53,1.07,14.29.59,7.36,1.23,14.72,1.82,22.09.24,3,.36,6,.59,9q.87,11.19,1.79,22.36c.17,2.15.44,4.28.55,6.43.24,4.45.33,8.92.61,13.38.12,2-.6,3-2.68,3.37-6.08,1.05-12.14,2.27-18.21,3.41-1.8.34-2.53-.78-2.66-2.28-.53-6.26-.93-12.53-1.48-18.8-.89-10.29-1.89-20.58-2.76-30.88-.45-5.31-.61-10.64-1.09-16-.66-7.37-1.56-14.71-2.25-22.07-.32-3.41-.43-6.83-.5-10.26a3.11,3.11,0,0,1,1-2.06c3.77-3.4,7.64-6.69,11.43-10.07,3-2.65,5.83-5.38,8.75-8.07C162.32,129.75,162.83,129.38,163.86,128.55Zm-18,47.5c4.36-2.23,8.38-4.32,12.43-6.36a9.91,9.91,0,0,0,5.35-10.64c-.83-5.8-1.3-11.64-1.91-17.46-.23-2.24-.44-4.47-.7-7.21-5.3,4.47-10.12,8.68-15.11,12.68-1.79,1.44-2.66,2.9-2.45,5.25.61,6.72,1,13.47,1.56,20.2A26.58,26.58,0,0,0,145.82,176.05Zm17.85-4.16c-1.3.69-2.59,1.41-3.91,2.06-4.17,2-8.36,4-12.5,6.1-1.26.64-1.94,1.65-.66,3,2.25-1,4.46-2,6.68-2.93,2.64-1.14,5.25-2.33,7.94-3.35C164.17,175.69,165,174.27,163.67,171.89Z"/><path class="cls-1" d="M294.48,54.74c-11,5.87-20.68,13.2-28.62,23l-1.69-2.09c-.13,1.08-.42,1.73-.24,2.2.76,2,.18,3.07-1.71,4-.49.24-.34,1.82-.49,2.79l.67.42-3.26,1c.95,2.84,0,5.13-2.74,6.75-.23.13,0,1.16.14,1.7a7.58,7.58,0,0,0,1,1.54c-.62.1-1.25.18-1.86.33a8.36,8.36,0,0,0-1.23.48l1.92,2.77-2.77.4,2.21,2L253,104.47l.8.12a15.87,15.87,0,0,1,.11,3.22c-.22,1.45-1.52,2.76-.19,4.4.26.31-.43,1.56-.88,2.25-.85,1.28-1.07,2.33.19,3.54s1.16,2.11-.83,2.26a19.92,19.92,0,0,0-2.37.52c.83.6,1.37,1,1.93,1.4,2.15,1.45,2.82,3.42,1.71,5.79-.6,1.26-.71,2,.55,3,1.87,1.49-.36,1.89-1.12,2.76l3.5,2.49c-.64.81-1.2,1.54-1.71,2.2,1.1,1,2.78,1.88,3.15,3.13s-.6,2.83-.83,3.69c2,2.56,4,4.76,5.63,7.16,1.51,2.18,1.23,2.63-1.69,3.61,6.57,1.82,7.75,7.15,9.34,12.65.34-.89.67-1.78,1.17-3.09V172c.94-1.32,1.63-2.27,2.82-3.92.68,1.87,1.09,3.21,1.65,4.48a26.8,26.8,0,0,0,1.66,2.82l1.73-2.17.63.21c-.21,1.57-.43,3.14-.67,4.94,2-.59,3.7-2.66,5.64-.61,1.28,1.35,4.12,1.41,3.49,4,1.55-.19,3.13-.8,4.47-.47,2.29.56.87,2.57,1,4.2a12.41,12.41,0,0,1,2.29-1.09,4.85,4.85,0,0,1,2.77-.2c.38.15.24,1.59.4,2.93l3.46-1.73.41-.64,1.57,2c2.15-1.2,2.15-1.2,4,2.79.29-.09.71-.1.87-.31,1.81-2.46,3.64-3.26,5.67-.21.13.2.74.34.84.24,1.82-1.89,3.6.52,5.37,0a45.41,45.41,0,0,1,5.46-1.63c2.87-.42,5.85-.17,8.67-.76,4.47-.93,8.84-2.32,13.26-3.52a3.84,3.84,0,0,1,2.33-.15c-2.31,1.12-4.56,2.38-6.93,3.34a85.1,85.1,0,0,1-17.35,4.77c-8.63,1.51-17.08.72-25.54-1.26a74.38,74.38,0,0,1-17.94-6.56,67.76,67.76,0,0,1-19-14.77c-4.46-5-8.5-10.41-11-16.79-1.39-3.6-3.36-7.05-4.28-10.76-2.1-8.46-4-17-2.63-25.86.39-2.43,1.4-4.77,2-7.18a20,20,0,0,0,.35-3.46c.07-1.08-.26-2.3.14-3.22,2.56-5.83,5-11.77,8-17.34a59.2,59.2,0,0,1,14.7-17.05,66.18,66.18,0,0,1,22-12.14Z"/><path class="cls-1" d="M154.45,281.17c5.69,1,11.37,1.93,17.07,2.86,3.67.59,7.34,1.35,11,1.58a6.05,6.05,0,0,0,4.43-1.72c3.25-3.76,6.12-7.85,9.58-12.4-3.07-1-5.38-2.15-7.79-2.45-4-.48-8-.41-12-.57q-11.82-.48-23.65-1a14.6,14.6,0,0,1-2.25-.42l0-.6a16.33,16.33,0,0,1,2.57-.4c10.63,0,21.27.12,31.9-.09,4.17-.08,8.31-1.18,12.49-1.41,2.46-.13,5,.58,7.45.82,1.19.12,2.61.47,3.55,0,3.25-1.66,6.07.27,9,.85.48.09.83,1.93.79,2.94,0,.42-1.19,1.09-1.88,1.14-2,.15-4,0-6,0-6,0-8.33,1.56-10.64,6.9a34.13,34.13,0,0,1-3,5.31c-1,1.54-2.32,2.91-3.76,4.67,4.78.82,9.27,1.6,13.76,2.33.94.16,1.93,0,2.86.23,1.1.23,2.34.59,2,2.14-.32,1.29-.65,2.76-2.57,2.45s-3.91-.63-5.86-1c-3.66-.66-7.34-1.25-11-2.05-3.3-.73-7.63,1.21-8,5.36-.28,3.54-1.2,7-1.33,10.58a36.86,36.86,0,0,0,4.23,18.56c1.51,2.89,3.63,5.42,7.09,4.39.25-1,.26-1.48-.85-2.63a23.8,23.8,0,0,1-5.41-8.43c-2.23-6.39-2.27-13.1-1.11-19.78A6.35,6.35,0,0,1,188,298a33.69,33.69,0,0,1,0,4.2c-.71,5.16.28,10.11,1.5,15.08a19.31,19.31,0,0,0,5,9.12c.43.44,1.29.94,1.7.78a2.82,2.82,0,0,0,1.44-1.62c2.53-8,1.53-16,0-24a6.18,6.18,0,0,1,.4-2.17c.79.5,2,.83,2.28,1.54A24.27,24.27,0,0,1,202,307c.91,7.62,1.19,15.21-2.17,22.43A6.08,6.08,0,0,1,189.49,331a26.51,26.51,0,0,1-7.05-16.89c-.25-5.6.21-11.24.34-16.86a8,8,0,0,0-.17-1.16c-1.7.7-3.48,1.11-4.82,2.11a5,5,0,0,0-1.63,3.32c-.33,4.1,0,8.26-.67,12.3a18.74,18.74,0,0,1-3.09,7.21,4.85,4.85,0,0,1-8-.05c-3.2-4.41-5.55-9.25-6-14.73-.3-4-.06-8-.06-12h1c0,3,0,6,0,9A28.33,28.33,0,0,0,164.6,319a4.29,4.29,0,0,0,3.94,1.14,5.67,5.67,0,0,0,3.12-3.46c.83-3.93,1.12-8,1.56-12,.22-1.95-.26-3.63-2.39-4.45l1.47-2.67-5.54,1.16c1.34-2.49,5.84-2,4.35-6.8,4.61,2.4,6.8-.12,9.21-3.24-5-1-9.8-2-14.57-2.93-3.4-.67-6.83-1.24-10.21-2-.68-.16-1.19-1.07-1.78-1.64Zm34.15,5c2.7.68,10.87-9.15,12.67-15-1.74-.64-2.6.2-3.34,1.63a31.58,31.58,0,0,1-2.35,3.8C193.32,279.77,191,282.91,188.6,286.21ZM185,291.29l-.72-1.12L176,295.66l.56.87Z"/><path class="cls-1" d="M331.89,86.17c8.15,0,13.46,3.39,16.53,9.37A15.66,15.66,0,0,1,347,112.78c-1.15,1.58-2.16,3.28-3.43,4.75-2.85,3.29-6.06,5-10.82,3.78-5.22-1.35-10.26-2.42-13.57-7.32-4.36-6.45-5.39-13-1-19.74C321.63,89,326.61,86.18,331.89,86.17Z"/><path class="cls-1" d="M187.33,250.75l-39.17,4.78-.27-.52a9.37,9.37,0,0,1,2.56-1.37q7.83-1.41,15.71-2.58c6.42-1,12.88-1.72,19.27-2.83a5.26,5.26,0,0,0,3.37-2.5A15.28,15.28,0,0,0,190,240.3c.13-1.48,1-2.09,2-1.36,1.83,1.33,3.36.57,4.89-.22a16.21,16.21,0,0,1,7.76-2c1.56,0,3.12-.83,4.81-1.33.13.91.26,1.71.37,2.45a21.53,21.53,0,0,1,3.15-2.94,3.15,3.15,0,0,1,2.6,0c.38.17.32,1.4.34,2.15.09,5.4.15,10.79.23,16.18,0,.15.14.3.16.45.48,6,.48,6-4.75,5.61-11.9-.81-23.71.92-35.57,1.07-8.45.11-16.89.57-25.34.86a3.26,3.26,0,0,1-1.65-.38c12.82-2.82,26.11-1.77,38.93-4.61-13.2-.72-26.23,1.7-39.36,2.2l-.21-.58c.35-.3.68-.79,1.07-.86,2.27-.4,4.55-.75,6.84-1,9.93-1.14,19.87-2.23,29.8-3.4.65-.08,1.24-.69,1.86-1Z"/><path class="cls-1" d="M302.08,90.19l-6.25,7c.5,4-.62,6.4-4.82,8.65-1.16.62-1.07,1.1-.42,2,2.73,3.61,2.7,3.6-.35,7.21a1.6,1.6,0,0,0,.36,1.52c2.19,1.54,2.22,2.41.06,4.15a14.54,14.54,0,0,0-1.47,1.54l3.64,1c-.6,1.1-1.21,2.19-1.73,3.14,1.07.84,2.64,1.59,3.45,2.83,1.57,2.42-1.32,2.41-2.61,3.32,1.78,1,3.68,1.45,4.6,2.67.77,1,.4,2.92.57,4.76,2.44,0,3.28,1.85,2.64,4.69,2.36-1.5,4.44-.83,3.53.88a18.36,18.36,0,0,1-2.35,2.8c2.37-.21,4.48-1,6.14-.4,2.58.87,1.77,3,.27,4.75l.56.51,3.54-1.89c.17.7.38,1.54.63,2.58l2.91-.22c.13.59.28,1.32.5,2.4l3.26-1,2.07,2.12c3-2.42,6.28-.11,9.45-.3,1.58-.1,3.18.16,4.74,0,4.07-.42,8.13-1,12-1.46-6.87,7.24-23.73,10.18-35.62,5.71-17.64-6.62-27.85-20.24-27.68-38.19.13-14,5.66-25.46,17.55-33.36Z"/><path class="cls-1" d="M171.54,66.65c-1.51,1.52-3.3,2.85-4.48,4.59-2,3-3.57,6.21-5.38,9.3-.59,1-1.74,1.84-2,2.89-.6,3-.24,6.23,0,9.18.23,3.57-.73,7.18-4.23,7.63a6.69,6.69,0,0,1-3.4-.58c-2.66-1.18-3.83-1-5.86,1-.59.56-1.68.61-2.56.87s-1.94.15-2.39.67c-2.27,2.61-4.89,5.1-6.37,8.14-1.68,3.44-4.3,4.4-7.55,4.85-2,.28-4.09.33-6.08.75-1.26.26-2.39,1.13-3.64,1.5a33.15,33.15,0,0,1-3.81.7c-.88,1-1.75,2-2.67,3a45.72,45.72,0,0,1-4.84,5c-.81.64-2.33.39-3.53.54-.07-1-.57-2.28-.13-2.81,2.64-3.17,3.65-7.73,7.65-9.67,2-.94,4.29-1,6.41-1.65a7.24,7.24,0,0,0,3.25-1.59,7.14,7.14,0,0,1,6.3-2.68,25.8,25.8,0,0,0,2.64,0c3.33,0,5.06-2,4.37-5.22-.34-1.59-.09-2.59,1.56-3.09.4-.12,1-.55,1-.9.59-4.09,4.56-4.5,7-6.48s5.54-3.4,7.71-5.67c1.29-1.36,1.48-3.86,2-5.89.85-3.42,1.23-6.94,3.32-10,1.51-2.23,3.53-2.18,5.73-2.29a4.58,4.58,0,0,0,2.81-1c2.12-2.08,4.7-.75,6.92-1.72Z"/><path class="cls-1" d="M240.44,209.1c2.39,2.06,2.58,3.21.63,4.92a22.83,22.83,0,0,1-4.84,3.14c-.73.37-1.8.07-2.34.55-1.09.94-2.14,1.94-3.28,2.82-2.07,1.59-2.63,4.16-4.09,6.15l-2.93,4c1,.75,1.33,1.89.06,3.41a4.54,4.54,0,0,0-.69,2.67c-.08,2.95,0,5.9,0,9l-3.1.27a6.06,6.06,0,0,0,1.53.84c2.37.33,1,2.32,1.63,3.35.71,1.22,2.13,1.94.72,3.62-.44.53-.22,1.62,0,2.52.27.73-2.3,1.41.38,2.05,1.31.31,1.65,1.16,1.45,2.51a6.32,6.32,0,0,0,.47,3.71l3.12,5.13-.61.75a35.43,35.43,0,0,1-5.08-.62,3.72,3.72,0,0,1-2.88-3.54c-.49-3.6-2-7.07-2.34-10.67-.9-9.54-2-19.06,2.21-28.34,2.8-6.2,7-10.43,13.47-12.27A9,9,0,0,0,240.44,209.1Z"/><path class="cls-1" d="M249.18,312.85c4.21-.67,4.59.93,5.57,3.55,1.85,5,1.35,10.21,1.59,15.36a42.85,42.85,0,0,1-2.73,16.79,12.62,12.62,0,0,1-5.26,6.7c-1.43.87-6.19.68-7.54-.29-3.94-2.83-5.79-7-7.73-11.28a58.58,58.58,0,0,1-4.42-17.16A50.62,50.62,0,0,1,229.83,309c.11-.46.71-.81,1.09-1.22.22.57.7,1.17.63,1.7-1.29,9.12-1.45,18.14,1.24,27.13a37.67,37.67,0,0,0,5.75,12.26c1.35,1.78,3.09,3.67,5.3,2.89a9.29,9.29,0,0,0,4.56-4.09,28.8,28.8,0,0,0,3.11-14.92C251.28,326.09,251.81,319.38,249.18,312.85Z"/><path class="cls-1" d="M274.93,329c-.78-.58-1.77-1-2.07-1.64-.39-.87-.69-2.36-.23-2.93,2.73-3.39,5.92-6.42,8.52-9.9a92.47,92.47,0,0,0,6.71-10.78C291,298,294,292.1,297,286.23a6.71,6.71,0,0,0,.51-2.29c.31-2.4.65-2.61,3.09-1.68-1.2,2.57-2.55,5.08-3.55,7.71-1.73,4.56-3.12,9.25-4.91,13.78a34.78,34.78,0,0,1-3.44,5.87,30.7,30.7,0,0,0-3,4.87c1.05-.9,2.19-1.72,3.14-2.71,5.43-5.69,10.53-11.61,13.69-18.94,1.4-3.24,2.85-6.46,4.18-9.73.6-1.48,1.3-2.17,2.9-1-.85,1.9-1.82,3.78-2.55,5.75-1.68,4.48-3.09,9.08-4.93,13.49a20.29,20.29,0,0,1-3.85,5.71c-3.56,3.86-7.24,7.62-11.07,11.2S279.08,325.43,274.93,329Z"/><path class="cls-1" d="M213.16,303.43c-1.81,11.53-2.19,22.84,4.91,32.94.44.63,1.38.9,2.48,1.59,4.54-11,3.37-21.69.45-32.4,2.64-.45,3.9.6,4.55,3.24,1.35,5.42,2.8,10.84,2.26,16.46s-1.37,11.1-4.71,15.88c-2.15,3.08-7.69,3.29-10.17.44-4.85-5.59-6.88-12.28-8.09-19.41-1.07-6.33,0-12.53.61-18.77.07-.69.87-1.3,1.85-1.69-.34,2.09-.7,4.18-1,6.28a43.37,43.37,0,0,0,1.18,18.4c1.21,4.45,2.46,8.81,5.81,12.16a8.25,8.25,0,0,0,3,1.79,2.15,2.15,0,0,0,1.78-.66c.2-.21-.16-1.18-.51-1.63-7.62-10-9.12-21.15-5.89-33.11a8.25,8.25,0,0,1,.83-1.58Z"/><path class="cls-1" d="M250.48,45.78c-2.81,2.25-5.29,5.31-8.48,6.56C237.21,54.21,232,55,226.84,55.87c-2.88.51-5.93.11-8.8.65a14.11,14.11,0,0,0-10.32,7.08c-1.12,2-2.22,4.1-3.51,6A19.29,19.29,0,0,1,193,77.5c-5.37,1.56-10.57,3.7-15.87,5.5a5.82,5.82,0,0,1-2.27-.2l-.08-.85a64.8,64.8,0,0,1,6.1-3.83c1.37-.68,3-.72,4.56-1.09,5.65-1.36,11.25-3,15.07-7.74a59,59,0,0,0,5-8.2c1.47-2.59,2.72-5.32,4.31-7.84.36-.57,1.75-.76,2.61-.67,1.16.12,2.24.8,3.4,1a9.52,9.52,0,0,0,3.73.29c4.55-1,9.06-2.14,13.55-3.39,5.66-1.57,11.28-3.3,16.92-5Z"/><path class="cls-1" d="M320.8,45.6c-2.32.95-4.57,1.9-6.84,2.79-.49.19-1.26.48-1.54.26-2-1.55-4.14-1.06-6.74-.08,0-2.92,0-5.42,0-7.92a1.05,1.05,0,0,1,.52-.72c1.78-.94,1.32-2.21.31-3.27-1.26-1.31-1.17-2.36-.35-3.95.6-1.18.33-2.81.46-4.52,3.61-1.19,7.84-2.34,11.43-1.08A41.21,41.21,0,0,1,319.76,32a20.94,20.94,0,0,1,.05,3.94C322.48,38.62,318.14,43,320.8,45.6Z"/><path class="cls-1" d="M260.61,65.13c-4.05,4.14-7.67,8.2-8.32,13.64-.49,4-2.65,6.37-5.59,8.56-1.74,1.3-3.19,3-4.89,4.33a10.23,10.23,0,0,1-2.66,1,41.11,41.11,0,0,1,1.26-15.09A16.67,16.67,0,0,1,248.81,67C252.16,65.24,256.1,63.89,260.61,65.13Z"/><path class="cls-1" d="M366.39,210.81c.7,5.68,1.45,11.35,2.11,17s1.23,11.21,1.83,16.82c.65,6.08,1.19,12.17,2,18.23a6.39,6.39,0,0,0,2.14,3.29c1.06,1,1.77,5.09.82,6.63s-3,1.84-4.9.94a3,3,0,0,1-1.3-4.33c2.45-5,1.29-9.84.37-14.86s-1.28-9.9-2-14.84c-1.06-7.54-2.25-15.05-3.25-22.59-1.08-8.18-2-16.37-3-24.55-.32-2.52-.9-5-1.27-7.51-.23-1.48-.54-3,1.4-3.79,1.45-.59,2.1-.14,2.26,1.32l2.43,22.74q.3,2.73.62,5.44Z"/><path class="cls-1" d="M247,155.67l-1.13.49-12.07,5.36c-2.45,1.09-4.89,2.18-7.33,3.29-6.49,3-13,6-19.48,9q-8.47,3.84-17,7.57a40.34,40.34,0,0,1-4.82,1.87c-.52.15-1.76-.31-1.77-.53,0-.88,0-2.35.51-2.56,2.9-1.27,6-2.13,8.9-3.37,3.1-1.33,6-3.07,9.13-4.4,5-2.15,10.14-4.07,15.19-6.16,1.74-.72,3.39-1.65,5.08-2.49,3.7-1.83,7.38-3.73,11.13-5.47,1.55-.72,3.28-1,4.88-1.64,1.33-.5,2.54-1.36,3.89-1.73a18.21,18.21,0,0,1,4.06-.37C246.34,154.49,246.52,155,247,155.67Z"/><path class="cls-1" d="M336.3,292.71c2.89,1.27,5.35,2.51,7.93,3.41a2.85,2.85,0,0,1,2.09,3c.06,4.47.06,8.93.07,13.4,0,1.68-.58,2.75-2.54,2.45a27.12,27.12,0,0,1-3.74-.48c-2.95-.88-4.24-2.73-4.25-5.76,0-4.31,0-8.61,0-12.92A26.36,26.36,0,0,1,336.3,292.71Z"/><path class="cls-1" d="M304.52,267.48c-1.6-5.62-3.16-11.24-4.83-16.84-1.32-4.47-2.8-8.89-4.16-13.34q-4.26-13.94-8.47-27.88-2.46-8.16-4.77-16.37c-.69-2.42-1.23-4.88-1.84-7.31a3.93,3.93,0,0,1,4,2.84c1.47,5.49,3,11,4.46,16.45,1.92,7.17,3.76,14.35,5.71,21.5,1.21,4.43,2.57,8.82,3.86,13.22,2.16,7.35,4.4,14.68,6.44,22.07a31.44,31.44,0,0,1,.53,5.69Z"/><path class="cls-1" d="M265.37,276.61c-11.58,0-23.16.05-34.74,0-2.15,0-4,.19-5.07,2.49l1.87,2.13L226,282c-.23,5.15-1,10.21,2.22,15h-5.29c-.73-4.09-1.39-8.36-2.27-12.59-.47-2.27-1.32-4.46-2-6.68-.32-1-1.22-2.46-.86-2.9a4.6,4.6,0,0,1,3.19-1.53c1.78,0,3.55.67,5.34.95a60.84,60.84,0,0,0,6.84.85c10.75.42,21.51.75,32.27,1.11Z"/><path class="cls-1" d="M395.89,213.33l-9.26,4.92a16.89,16.89,0,0,1-2.08,3.64c-2.54,2.79-2.75,6.17-3.18,9.64a21.59,21.59,0,0,0,3.14,13.78c1.32,2.24,4,3.7,6.23,5.35a40.55,40.55,0,0,0,4.41,2.49c-6.53,1.62-15.87-7.47-17.6-16.33C375.48,226.22,383.71,214,395.89,213.33Z"/><path class="cls-1" d="M253.19,43a53.08,53.08,0,0,0,4.42-3.11c4.77-4.11,9.43-8.36,14.21-12.46,3.74-3.22,7.29-6.75,12.05-8.5,5.67-2.07,11.27-2.18,16.65,1,.34.21.73.33,1.08.51s.46.3.83.53c-1.22,1.63-2.62,1-3.92.68-4.05-.94-8.09-1.81-12.2-.31a30.69,30.69,0,0,0-9.66,6.08c-4.91,4.31-9.41,9.2-15.7,11.78-1.83.75-3.34,2.27-5,3.37a18.8,18.8,0,0,1-2.26,1.08Z"/><path class="cls-1" d="M249.13,217.25a51.26,51.26,0,0,0-6,3.86,41.67,41.67,0,0,0-4.47,5.06c-.2.23-.18.75-.39.84-2.81,1.17-2,3.75-2.18,5.83-.42,5-.13,9.95,2.46,14.3a28.4,28.4,0,0,0,5.82,6.39,32,32,0,0,0,5.21,3.19c-8.12,0-17-7.76-17.76-18.44C231.1,228,238.8,218,249.13,217.25Z"/><path class="cls-1" d="M255.39,163.08a6.77,6.77,0,0,1,1.68,7.34c-2.11,6.68-3.77,13.5-5.72,20.24-.72,2.5-1.75,4.92-2.62,7.38a1.83,1.83,0,0,1-2.85,1.1,2.75,2.75,0,0,1-.74-2.47c1.78-6.14,3.77-12.22,5.59-18.35,1.14-3.84,2.06-7.74,3.16-11.59A35.4,35.4,0,0,1,255.39,163.08Z"/><path class="cls-1" d="M361.74,280.89c-3.81,2-7.67,3.39-11.89,3-5.08-.47-9.67.39-13.18,4.48-1.55,1.81-3.67,1.28-5.57,1.12-1.71-.16-2.79-3.19-2.51-6.52.17-2,1.71-2,3.18-2l17,0Z"/><path class="cls-1" d="M227.28,89.75a26.1,26.1,0,0,1-.87,4.21,14.22,14.22,0,0,0-1,8.79,4.64,4.64,0,0,1-1.61,4.93c-1.8,1.49-3.55,3-5.41,4.63C215,104.62,219,95.43,227.28,89.75Z"/><path class="cls-1" d="M333.66,122.16c-1.63,2.41-4.05,1.37-6,1.37-8.41,0-14-4.89-16.73-12.27-2-5.4,0-13.48,3.87-16.47-2,6.59-2.91,13.2,1.18,19.21S326.48,121.35,333.66,122.16Z"/><path class="cls-1" d="M138,291c.92,4.46,1.78,9.59,3.09,14.6a17.32,17.32,0,0,0,3.21,5.85c1.06,1.38,3.53.89,4.49-.73,3.16-5.35,3.43-11.11,2.07-17-.51-2.22-1.15-4.4-1.74-6.6l.56-.62c.7.53,1.69.92,2,1.62,3.57,7.14,3,14.43.49,21.71a7.89,7.89,0,0,1-2.12,3.2c-2.47,2.15-3.77,2.12-6.09-.21a18.14,18.14,0,0,1-5.32-11.57C138.38,297.57,138.2,293.93,138,291Z"/><path class="cls-1" d="M299.86,27.8c3.69-2.62,6.61-5.28,10.94-4.44a2.08,2.08,0,0,0,1.19-.05c6.41-3,12.16-.1,18,2a24.55,24.55,0,0,1,4.35,1.7c.58.35.66,1.54,1,2.34-.74.11-1.56.48-2.2.27-5.64-1.78-11.17-4.28-17.19-4.13-4.32.11-8.61,1-12.91,1.55C302.17,27.12,301.35,27.42,299.86,27.8Z"/><path class="cls-1" d="M35.7,245.4c6.13-1.1,12.27-2.17,18.39-3.31,6.53-1.22,13-2.54,19.57-3.74q11.07-2,22.18-3.88c.62-.11,1.33.4,2,.62-.53.56-1,1.5-1.59,1.61-7.8,1.37-15.62,2.65-23.44,3.89q-16.9,2.67-33.83,5.25a21.37,21.37,0,0,1-3.1,0Z"/><path class="cls-1" d="M36.56,261.13c4.25.45,8.5.92,12.75,1.33,4.6.43,9.2.78,13.79,1.21,5.62.53,11.23,1.09,16.85,1.63l7.82.76c3.57.33,7.14.6,10.69,1a6.53,6.53,0,0,1,2,1l-.39,1.22c-21.23-2.31-42.41-5-63.62-7.46Z"/><path class="cls-1" d="M100.27,264.09c-1.7,1.33-62.63-3.21-68.43-4.95C36.66,258.41,98.1,262.77,100.27,264.09Z"/><path class="cls-1" d="M29.62,251.69c5.16-.32,10.31-.59,15.46-1,6.51-.48,13-1.06,19.51-1.6,3.25-.27,6.5-.52,9.75-.8,7.14-.61,14.27-1.27,21.4-1.79.83-.06,2.37.51,2.44,1,.27,1.59-1.14,1.25-2.13,1.32l-27.9,1.8-1,.06-33.93,1.54c-1.19,0-2.38,0-3.57,0Z"/><path class="cls-1" d="M32.31,249.65c4.63-.45,9.28-.85,13.91-1.35,5.6-.61,11.19-1.32,16.79-2s11.21-1.24,16.82-1.84,11.36-1.2,17-1.73c.47,0,1,.48,1.47.73-.42.48-.79,1.31-1.27,1.37-3.39.43-6.8.73-10.21,1-9,.79-17.9,1.6-26.86,2.33-5.15.42-10.32.65-15.47,1.05-4,.31-8.06.73-12.1,1.11Z"/><path class="cls-1" d="M27,255.15c.74-.05,1.48-.13,2.21-.13q34,0,68,0c.7,0,1.39.58,2.08.89-.68.34-1.38,1-2.06,1-12.13-.11-24.25-.3-36.38-.47L29.5,256H27Z"/><path class="cls-1" d="M41.08,253.31,64,252.17q14.82-.72,29.64-1.43a25.13,25.13,0,0,1,4.07,0c.53.07,1,.71,1.49,1.1l-1.52,1.21s-.15,0-.23,0H41.14Z"/><path class="cls-1" d="M36.69,234.7c4.09-1.38,8.2-2.7,12.26-4.14s8-3.05,12-4.46c5.94-2.09,11.94-4,17.88-6.13,3.65-1.29,7.25-2.73,10.87-4.08,1.77-.66,3.54-1.31,5.35-1.86.37-.11.88.25,1.33.4-.22.44-.33,1.11-.68,1.29a30.37,30.37,0,0,1-4.15,1.79c-4.78,1.62-9.58,3.18-14.38,4.72-5.86,1.87-11.75,3.63-17.59,5.55-4.42,1.45-8.78,3.12-13.19,4.62-3.18,1.08-6.4,2-9.6,3Z"/><path class="cls-1" d="M39,263.42l61,7.93c.17,1.92.09,2.11-1.78,1.85-3.14-.43-6.25-1.13-9.4-1.57-6.66-.94-13.34-1.73-20-2.72-4.46-.66-8.87-1.62-13.31-2.34-5.31-.87-10.64-1.62-16-2.44a2.45,2.45,0,0,1-.61-.25Z"/><path class="cls-1" d="M32.7,247.87l65-9.53.11,2L32.79,248.5Z"/><path class="cls-1" d="M39.35,242.47c7.1-1.41,14.2-2.81,21.29-4.26,1.79-.37,3.52-1,5.3-1.38,5.48-1.25,11-2.46,16.44-3.68,3.78-.83,7.56-1.67,11.36-2.46a5.94,5.94,0,0,1,2.14-.1,7.73,7.73,0,0,1,1.73.76c-.53.47-1,1.23-1.6,1.35-3.26.66-6.56,1.08-9.82,1.72-5.9,1.14-11.77,2.41-17.67,3.56q-13,2.57-26.09,5a16.68,16.68,0,0,1-3,0Z"/><path class="cls-1" d="M40.47,240.1q9.77-2.37,19.51-4.74c1.16-.28,2.29-.65,3.44-1l25.44-6.56c2.21-.57,4.41-1.14,6.65-1.59.54-.1,1.19.3,1.8.46-.38.48-.68,1.27-1.14,1.39-4.06,1-8.15,1.95-12.22,2.92-5.68,1.36-11.35,2.78-17,4.11Q55,237.9,43.13,240.54a12,12,0,0,1-2.61,0Z"/><path class="cls-1" d="M94.73,193c.8,3-1.79,3.07-3,3.8a96,96,0,0,1-8.61,4.3c-6,3-12,5.92-18,9-4.34,2.2-8.59,4.57-12.91,6.8-4,2.07-8,4-12.06,6.06l-.3-.59Z"/><path class="cls-1" d="M97.3,223.65c-1.39.51-2.74,1.13-4.16,1.5-5.78,1.52-11.58,3-17.37,4.44-8.25,2.08-16.5,4.14-24.74,6.26-2.23.57-4.41,1.33-6.62,2a5.51,5.51,0,0,1-3.1.07c2.4-.82,4.78-1.73,7.22-2.44,5.14-1.5,10.3-2.9,15.47-4.32,7.13-2,14.28-3.89,21.42-5.85,3.26-.9,6.5-1.91,9.77-2.78a6.66,6.66,0,0,1,2.11.15Z"/><path class="cls-1" d="M45.24,214.54,92,186.05l.51.83c-14.87,10.69-30.78,19.65-46.85,28.37Z"/><path class="cls-1" d="M43.46,230.23c1.47-.7,2.9-1.51,4.41-2.1,8.56-3.38,17.15-6.7,25.72-10l13.6-5.36c2.18-.86,4.35-1.77,6.56-2.57a3.35,3.35,0,0,1,2.45.32c-.45.58-.78,1.48-1.37,1.71-4.62,1.8-9.28,3.51-14,5.19-6.06,2.18-12.16,4.26-18.2,6.46-5.77,2.11-11.5,4.35-17.25,6.49a9.29,9.29,0,0,1-1.84.29Z"/><path class="cls-1" d="M223.12,192a5.37,5.37,0,0,1,5.11-5.08c2.55.08,5,2.84,5,5.63a4.89,4.89,0,0,1-5.12,4.74C224.84,197.28,223.08,195.4,223.12,192Z"/><path class="cls-1" d="M42.73,258.28c7.33,0,14.65,0,22,0,8.78,0,17.56.06,26.34.16a64,64,0,0,1,6.91.46c.62.08,1.17.76,1.76,1.17-.66.39-1.32,1.14-2,1.12-4.06-.07-8.12-.25-12.17-.5-6.67-.42-13.33-.95-20-1.36-7.62-.46-15.25-.85-22.87-1.27Z"/><path class="cls-1" d="M96.84,219.77,43.37,235.62l-.24-.74,6-1.92c4.27-1.39,8.53-2.83,12.83-4.18,6.38-2,12.81-3.89,19.19-5.93,4.43-1.43,8.85-2.94,13.19-4.63C95.94,217.61,96.49,217.94,96.84,219.77Z"/><path class="cls-1" d="M95.75,206c-.29.58-.43,1.5-.88,1.69-3.82,1.64-7.71,3.12-11.57,4.69-3.5,1.43-7,2.94-10.47,4.35-5.32,2.13-10.67,4.17-16,6.3-3.28,1.33-6.53,2.76-9.8,4.11-.77.32-1.6.5-2.4.75l-.24-.63L95,205.63Z"/><path class="cls-1" d="M44.37,224.8,95,201.43l.7.93c-.55.55-1,1.34-1.66,1.64-4.81,2.11-9.69,4.08-14.51,6.18-3.18,1.39-6.28,3-9.46,4.37-4.3,1.88-8.65,3.63-13,5.5-3.39,1.48-6.73,3.06-10.11,4.57-.75.34-1.55.59-2.33.87Z"/><path class="cls-1" d="M44.32,222.38l50.5-25.14c.09.9.15,1.56.2,2.06L44.66,223.13Z"/><path class="cls-1" d="M353.6,129.83c0-6.05,0-11.47,0-16.88,0-1.33-.06-2.57-2-2.91v16.7h-.44c0-6-.05-11.93.06-17.9,0-.64,1-1.85,1.38-1.8a7.38,7.38,0,0,1,3.58,1.4c1.06.93,1.66,2.38,2.52,3.71,0-.05,0,.18-.1.22-3.86,1.58-5.4,4.79-3.94,8.84a4.12,4.12,0,0,0,2.43,1.86c1.57.55,2.55,2.24,1.42,3.34A36.81,36.81,0,0,1,353.6,129.83Z"/><path class="cls-1" d="M205.46,121.1c0-5.74-.07-11.32.08-16.9,0-.88,1-1.83,1.73-2.53.15-.14,1.82.73,1.85,1.19.18,3.06.11,6.14.11,9.21a24,24,0,0,0-.06,4.06C209.66,119,208.49,120.49,205.46,121.1Z"/><path class="cls-1" d="M150.17,263.74a8.87,8.87,0,0,1,1.9-.54q7.74-.51,15.49-.92c6.2-.33,12.4-.62,18.6-.93.4,0,.88-.15,1.18,0,.88.52,1.69,1.16,2.53,1.75a7.58,7.58,0,0,1-2.53,1c-11.41.08-22.82.07-34.24.07h-2.84Z"/><path class="cls-1" d="M246.16,347.09c-3.77-.09-5.79-2.45-7.22-5.42a49.54,49.54,0,0,1-4.69-22.56,75.91,75.91,0,0,1,1.27-9.29h1a8.72,8.72,0,0,1,.31,2.91c-1.67,6.77-.81,13.42.95,20a46.35,46.35,0,0,0,3.22,8.8c.82,1.67,2.52,2.9,3.84,4.32C245.25,346.27,245.72,346.67,246.16,347.09Z"/><path class="cls-1" d="M128.58,282.1c1.57-.63,2-.25,2.58,1.29,1.69,4.85,2.46,9.7,1.26,14.74a27.27,27.27,0,0,1-1.61,4.71c-1.25,2.83-5,3.07-7,.43a23,23,0,0,1-4.27-11.39,21.24,21.24,0,0,1,.3-6c.36,2.68.5,5.41,1.12,8a38.24,38.24,0,0,0,2.74,7.71,3.56,3.56,0,0,0,3,1.35,3.92,3.92,0,0,0,2.56-2C131.8,295.65,131.52,289.1,128.58,282.1Z"/><path class="cls-1" d="M54.26,212.37a13.64,13.64,0,0,1,2.18-1.93c6.5-3.69,13.06-7.26,19.54-11,5.55-3.17,11-6.49,16.53-9.67a7.45,7.45,0,0,1,2.26-.48l.41.77a11.11,11.11,0,0,1-1.88,1.64c-4.27,2.36-8.59,4.63-12.86,7-8.13,4.45-16.23,8.95-24.37,13.39a5.29,5.29,0,0,1-1.86.21Z"/><path class="cls-1" d="M269.85,87.26c-2,4.22-1.43,8,1.43,11-2,1.46-3.68,1.34-6-.4-1.65-1.21-3.23-4.19-2.32-6.36C264.25,88.25,265.85,87.1,269.85,87.26Z"/><path class="cls-1" d="M227,203.64a10.11,10.11,0,0,1-8.85-2.33c-3.26-3.54-3.65-7.89-2.27-12,1.54-4.61,5.72-6.32,10.58-6.33a21.78,21.78,0,0,1-2.47,1.33c-5.57,2.19-8.14,7.82-5.82,13.3a7.83,7.83,0,0,0,5.18,4.79C224.5,202.73,225.63,203.18,227,203.64Z"/><path class="cls-1" d="M199.59,202.26c.42-.4,1-1.39,1.89-1.76q5.19-2.2,10.53-4c.6-.2,1.51.46,2.27.72-.28.84-.34,2.19-.89,2.44-3.85,1.7-7.82,3.13-11.72,4.73C200.09,205,199.64,204.33,199.59,202.26Z"/><path class="cls-1" d="M416,271.34,379.92,273l0-.77C391.88,270.39,404,271,416,271.34Z"/><path class="cls-1" d="M214.49,190.56c-.14.52-.12,1.36-.43,1.5-4.46,2-9,3.95-13.46,5.86-.22.09-.57-.15-1.67-.47C203.73,193.72,209.28,193,214.49,190.56Z"/><path class="cls-1" d="M231.36,89c-.7,4.47-1.39,8.85-2.07,13.24h-.64c-.19-4.1-.39-8.2-.6-12.62Z"/><path class="cls-1" d="M166.8,316.19c-5.67-3.67-7.79-18.75-3.43-24.32C160.88,304.22,162.18,308.13,166.8,316.19Z"/><path class="cls-1" d="M364.13,295.43c0,5,0,9.95,0,14.92,0,.37-.63.72-1,1.08-.3-.48-.87-1-.85-1.44.15-3.65.4-7.29.66-10.94.09-1.22.3-2.44.46-3.66Z"/><path class="cls-1" d="M350.69,287.49a34.18,34.18,0,0,1,12.52,3.57c.44.23.56,1.08.83,1.64-.63.19-1.42.73-1.85.52C358.49,291.48,354.86,289.6,350.69,287.49Z"/><path class="cls-1" d="M203.3,208c4-1.77,8.08-3.58,12.16-5.29.51-.22,1.22,0,1.85.06-.42.47-.75,1.16-1.26,1.36-3.78,1.5-7.59,2.92-11.41,4.32a3.57,3.57,0,0,1-1.33-.07Z"/><path class="cls-1" d="M143.5,303.59c-3.66-2.77-3.33-13.71-2-16.41a67.76,67.76,0,0,0,.07,8.14A72,72,0,0,0,143.5,303.59Z"/><path class="cls-1" d="M123.14,293.2a10.65,10.65,0,0,1,0-10.16Z"/><path class="cls-1" d="M326.26,268.09h6.18c0,.22,0,.44,0,.67h-6.18Z"/><path class="cls-1" d="M346.69,268.08h5.89l0,.65h-5.86Z"/><path class="cls-1" d="M335.73,268h4.94l0,.62H335.8C335.78,268.43,335.75,268.23,335.73,268Z"/><path class="cls-1" d="M363.6,268.83h-5.11C359.8,267.12,360.93,267,363.6,268.83Z"/><path class="cls-1" d="M54.21,212.32a7,7,0,0,1-4.9,3l-.34-.66,5.29-2.25Z"/><path d="M127.77,173.39a41.39,41.39,0,0,1,.8,4.08q1.2,11.85,2.29,23.71c.42,4.59.66,9.2,1.1,13.79,1.06,11.07,2.19,22.14,3.29,33.21a3.64,3.64,0,0,1,0,1.43,23.4,23.4,0,0,1-1.1,2.46,8.15,8.15,0,0,1-1.21-2.53q-1.75-18.64-3.34-37.3c-.59-7.06-1-14.13-1.56-21.19-.39-4.91-1-9.81-1.35-14.72a12.8,12.8,0,0,1,.43-2.9Z"/><path d="M145.82,176.05a26.58,26.58,0,0,1-.83-3.54c-.55-6.73-1-13.48-1.56-20.2-.21-2.35.66-3.81,2.45-5.25,5-4,9.81-8.21,15.11-12.68.26,2.74.47,5,.7,7.21.61,5.82,1.08,11.66,1.91,17.46a9.91,9.91,0,0,1-5.35,10.64C154.2,171.73,150.18,173.82,145.82,176.05Z"/><path d="M163.67,171.89c1.35,2.38.5,3.8-2.45,4.91-2.69,1-5.3,2.21-7.94,3.35-2.22,1-4.43,1.94-6.68,2.93-1.28-1.38-.6-2.39.66-3,4.14-2.09,8.33-4.06,12.5-6.1C161.08,173.3,162.37,172.58,163.67,171.89Z"/><path d="M188.6,286.21c2.4-3.3,4.72-6.44,7-9.62a31.58,31.58,0,0,0,2.35-3.8c.74-1.43,1.6-2.27,3.34-1.63C199.47,277.06,191.3,286.89,188.6,286.21Z"/><path d="M185,291.29l-8.37,5.24-.56-.87,8.21-5.49Z"/></g></g></svg>