<svg xmlns="http://www.w3.org/2000/svg" viewBox="0 0 256.5 512.5"><defs><style>.cls-1,.cls-2{fill:none;}.cls-1,.cls-3,.cls-5{stroke:#000;stroke-miterlimit:10;}.cls-3{fill:#754c24;}.cls-4,.cls-5{fill:#ccc;}</style></defs><title>verticale</title><g id="Calque_2" data-name="Calque 2"><g id="box"><rect class="cls-1" x="119.5" y="130.27" width="17" height="23.96"/><rect class="cls-1" x="119.5" y="100.32" width="17" height="23.96"/><rect class="cls-1" x="119.5" y="220.1" width="17" height="23.96"/><rect class="cls-1" x="119.5" y="160.21" width="17" height="23.96"/><rect class="cls-1" x="119.5" y="250.04" width="17" height="23.96"/><rect class="cls-1" x="119.5" y="40.44" width="17" height="23.96"/><rect class="cls-1" x="119.5" y="190.16" width="17" height="23.96"/><rect class="cls-1" x="119.5" y="70.38" width="17" height="23.96"/><rect class="cls-1" x="119.5" y="10.49" width="17" height="23.96"/><rect class="cls-1" x="119.5" y="309.93" width="17" height="23.96"/><rect class="cls-1" x="119.5" y="279.99" width="17" height="23.96"/><rect class="cls-1" x="119.5" y="399.76" width="17" height="23.96"/><rect class="cls-1" x="119.5" y="429.71" width="17" height="23.96"/><polygon class="cls-2" points="111 489.6 111 483.61 116.5 483.61 116.5 459.65 111 459.65 111 453.66 116.5 453.66 116.5 429.71 111 429.71 111 423.72 116.5 423.72 116.5 399.76 111 399.76 111 393.77 116.5 393.77 116.5 369.82 111 369.82 111 363.83 116.5 363.83 116.5 339.88 111 339.88 111 333.89 116.5 333.89 116.5 309.93 111 309.93 111 303.94 116.5 303.94 116.5 279.99 111 279.99 111 274 116.5 274 116.5 250.04 111 250.04 111 244.06 116.5 244.06 116.5 220.1 111 220.1 111 214.11 116.5 214.11 116.5 190.16 111 190.16 111 184.17 116.5 184.17 116.5 160.21 111 160.21 111 154.22 116.5 154.22 116.5 130.27 111 130.27 111 124.28 116.5 124.28 116.5 100.32 111 100.32 111 94.33 116.5 94.33 116.5 70.38 111 70.38 111 64.39 116.5 64.39 116.5 40.44 111 40.44 111 34.45 116.5 34.45 116.5 10.49 111 10.49 111 4.5 116.5 4.5 116.5 0 0 0 0 256 0 256.5 0 512.5 116.5 512.5 116.5 489.6 111 489.6"/><rect class="cls-1" x="119.5" y="459.65" width="17" height="23.96"/><rect class="cls-1" x="119.5" y="339.88" width="17" height="23.96"/><rect class="cls-1" x="119.5" y="369.82" width="17" height="23.96"/><polygon class="cls-2" points="139.5 0 139.5 4.5 145 4.5 145 10.49 139.5 10.49 139.5 34.45 145 34.45 145 40.44 139.5 40.44 139.5 64.39 145 64.39 145 70.38 139.5 70.38 139.5 94.33 145 94.33 145 100.32 139.5 100.32 139.5 124.28 145 124.28 145 130.27 139.5 130.27 139.5 154.22 145 154.22 145 160.21 139.5 160.21 139.5 184.17 145 184.17 145 190.16 139.5 190.16 139.5 214.11 145 214.11 145 220.1 139.5 220.1 139.5 244.06 145 244.06 145 250.04 139.5 250.04 139.5 274 145 274 145 279.99 139.5 279.99 139.5 303.94 145 303.94 145 309.93 139.5 309.93 139.5 333.89 145 333.89 145 339.88 139.5 339.88 139.5 363.83 145 363.83 145 369.82 139.5 369.82 139.5 393.77 145 393.77 145 399.76 139.5 399.76 139.5 423.72 145 423.72 145 429.71 139.5 429.71 139.5 453.66 145 453.66 145 459.65 139.5 459.65 139.5 483.61 145 483.61 145 489.6 139.5 489.6 139.5 512.5 256.5 512.5 256.5 256.5 256.5 256 256.5 0 139.5 0"/><rect class="cls-3" x="119.5" y="244.05" width="17" height="5.99"/><rect class="cls-3" x="119.5" y="214.11" width="17" height="5.99"/><rect class="cls-3" x="119.5" y="303.94" width="17" height="5.99"/><rect class="cls-3" x="139.5" y="393.77" width="5.5" height="5.99"/><rect class="cls-3" x="119.5" y="274" width="17" height="5.99"/><rect class="cls-3" x="119.5" y="184.17" width="17" height="5.99"/><rect class="cls-3" x="119.5" y="124.28" width="17" height="5.99"/><rect class="cls-3" x="139.5" y="483.61" width="5.5" height="5.99"/><rect class="cls-3" x="139.5" y="363.83" width="5.5" height="5.99"/><rect class="cls-3" x="119.5" y="154.22" width="17" height="5.99"/><rect class="cls-3" x="119.5" y="453.66" width="17" height="5.99"/><rect class="cls-3" x="119.5" y="94.34" width="17" height="5.99"/><rect class="cls-3" x="119.5" y="423.72" width="17" height="5.99"/><rect class="cls-3" x="119.5" y="483.61" width="17" height="5.99"/><rect class="cls-3" x="119.5" y="393.77" width="17" height="5.99"/><rect class="cls-3" x="139.5" y="453.66" width="5.5" height="5.99"/><rect class="cls-3" x="119.5" y="333.89" width="17" height="5.99"/><rect class="cls-3" x="119.5" y="363.83" width="17" height="5.99"/><rect class="cls-3" x="139.5" y="423.72" width="5.5" height="5.99"/><rect class="cls-3" x="119.5" y="4.5" width="17" height="5.99"/><rect class="cls-3" x="111" y="124.28" width="5.5" height="5.99"/><rect class="cls-3" x="111" y="214.11" width="5.5" height="5.99"/><rect class="cls-3" x="111" y="184.17" width="5.5" height="5.99"/><rect class="cls-3" x="111" y="244.05" width="5.5" height="5.99"/><rect class="cls-3" x="111" y="34.45" width="5.5" height="5.99"/><rect class="cls-3" x="111" y="274" width="5.5" height="5.99"/><rect class="cls-3" x="111" y="4.5" width="5.5" height="5.99"/><rect class="cls-3" x="111" y="64.39" width="5.5" height="5.99"/><rect class="cls-3" x="111" y="94.34" width="5.5" height="5.99"/><rect class="cls-3" x="111" y="453.66" width="5.5" height="5.99"/><rect class="cls-3" x="139.5" y="333.89" width="5.5" height="5.99"/><rect class="cls-3" x="111" y="483.61" width="5.5" height="5.99"/><rect class="cls-3" x="119.5" y="34.45" width="17" height="5.99"/><rect class="cls-3" x="119.5" y="64.39" width="17" height="5.99"/><rect class="cls-3" x="111" y="423.72" width="5.5" height="5.99"/><rect class="cls-3" x="111" y="363.83" width="5.5" height="5.99"/><rect class="cls-3" x="111" y="303.94" width="5.5" height="5.99"/><rect class="cls-3" x="111" y="333.89" width="5.5" height="5.99"/><rect class="cls-3" x="111" y="393.77" width="5.5" height="5.99"/><rect class="cls-3" x="111" y="154.22" width="5.5" height="5.99"/><rect class="cls-3" x="139.5" y="94.34" width="5.5" height="5.99"/><rect class="cls-3" x="139.5" y="214.11" width="5.5" height="5.99"/><rect class="cls-3" x="139.5" y="244.05" width="5.5" height="5.99"/><rect class="cls-3" x="139.5" y="124.28" width="5.5" height="5.99"/><rect class="cls-3" x="139.5" y="64.39" width="5.5" height="5.99"/><rect class="cls-3" x="139.5" y="154.22" width="5.5" height="5.99"/><rect class="cls-3" x="139.5" y="184.17" width="5.5" height="5.99"/><rect class="cls-3" x="139.5" y="34.45" width="5.5" height="5.99"/><rect class="cls-3" x="139.5" y="4.5" width="5.5" height="5.99"/><rect class="cls-3" x="139.5" y="303.94" width="5.5" height="5.99"/><rect class="cls-3" x="139.5" y="274" width="5.5" height="5.99"/><polygon class="cls-4" points="139.5 483.61 139.5 459.65 139.5 453.66 139.5 429.71 139.5 423.72 139.5 399.76 139.5 393.77 139.5 369.82 139.5 363.83 139.5 339.88 139.5 333.89 139.5 309.93 139.5 303.94 139.5 279.99 139.5 274 139.5 250.04 139.5 244.06 139.5 220.1 139.5 214.11 139.5 190.16 139.5 184.17 139.5 160.21 139.5 154.22 139.5 130.27 139.5 124.28 139.5 100.32 139.5 94.33 139.5 70.38 139.5 64.39 139.5 40.44 139.5 34.45 139.5 10.49 139.5 4.5 139.5 0 136.5 0 136.5 4.5 136.5 10.49 136.5 34.45 136.5 40.44 136.5 64.39 136.5 70.38 136.5 94.33 136.5 100.32 136.5 124.28 136.5 130.27 136.5 154.22 136.5 160.21 136.5 184.17 136.5 190.16 136.5 214.11 136.5 220.1 136.5 244.06 136.5 250.04 136.5 274 136.5 279.99 136.5 303.94 136.5 309.93 136.5 333.89 136.5 339.88 136.5 363.83 136.5 369.82 136.5 393.77 136.5 399.76 136.5 423.72 136.5 429.71 136.5 453.66 136.5 459.65 136.5 483.61 136.5 489.6 136.5 512.5 139.5 512.5 139.5 489.6 139.5 483.61"/><polygon class="cls-4" points="119.5 483.61 119.5 459.65 119.5 453.66 119.5 429.71 119.5 423.72 119.5 399.76 119.5 393.77 119.5 369.82 119.5 363.83 119.5 339.88 119.5 333.89 119.5 309.93 119.5 303.94 119.5 279.99 119.5 274 119.5 250.04 119.5 244.06 119.5 220.1 119.5 214.11 119.5 190.16 119.5 184.17 119.5 160.21 119.5 154.22 119.5 130.27 119.5 124.28 119.5 100.32 119.5 94.33 119.5 70.38 119.5 64.39 119.5 40.44 119.5 34.45 119.5 10.49 119.5 4.5 119.5 0 116.5 0 116.5 4.5 116.5 10.49 116.5 34.45 116.5 40.44 116.5 64.39 116.5 70.38 116.5 94.33 116.5 100.32 116.5 124.28 116.5 130.27 116.5 154.22 116.5 160.21 116.5 184.17 116.5 190.16 116.5 214.11 116.5 220.1 116.5 244.06 116.5 250.04 116.5 274 116.5 279.99 116.5 303.94 116.5 309.93 116.5 333.89 116.5 339.88 116.5 363.83 116.5 369.82 116.5 393.77 116.5 399.76 116.5 423.72 116.5 429.71 116.5 453.66 116.5 459.65 116.5 483.61 116.5 489.6 116.5 512.5 119.5 512.5 119.5 489.6 119.5 483.61"/><line class="cls-5" x1="116.5" x2="116.5" y2="512.5"/><line class="cls-5" x1="136.5" x2="136.5" y2="512.5"/><line class="cls-5" x1="139.5" x2="139.5" y2="512.5"/><line class="cls-5" x1="119.5" x2="119.5" y2="512.5"/></g></g></svg>