<svg xmlns="http://www.w3.org/2000/svg" viewBox="0 0 256.5 256.5"><defs><style>.cls-1,.cls-2{fill:none;}.cls-1,.cls-3{stroke:#000;stroke-miterlimit:10;}.cls-3{fill:#754c24;}.cls-4{fill:#ccc;}</style></defs><title>virage</title><g id="Calque_2" data-name="Calque 2"><g id="box"><path class="cls-1" d="M112.32,208.46l16.07-5.57a126.37,126.37,0,0,0-11.59-23.28l-14.24,9.26A110.14,110.14,0,0,1,112.32,208.46Z"/><path class="cls-1" d="M99.26,183.93l14.2-9.34A128,128,0,0,0,96,154.43l-11.18,12.8A112,112,0,0,1,99.26,183.93Z"/><path class="cls-1" d="M80.34,163.27l11.11-12.86a128.71,128.71,0,0,0-20.61-14.32L62.62,151A111.57,111.57,0,0,1,80.34,163.27Z"/><path class="cls-1" d="M57.35,148.21l8.15-14.93a127.13,127.13,0,0,0-24.15-9.08l-4.14,16.49A109.78,109.78,0,0,1,57.35,148.21Z"/><path class="cls-1" d="M118.81,235.36l17-1.39a126.8,126.8,0,0,0-5.39-25.38l-16.09,5.48A109.62,109.62,0,0,1,118.81,235.36Z"/><path class="cls-2" d="M116.33,241.58l-5,.41-.49-6,5-.41A106.82,106.82,0,0,0,111.45,215l-5.1,1.73-1.93-5.58,5.07-1.75A107.55,107.55,0,0,0,100,190.51l-4.19,2.72L92.6,188.3l4.15-2.73a108,108,0,0,0-14-16.08l-3.28,3.74-4.46-3.86,3.32-3.84A108,108,0,0,0,61.17,153.6l-2.32,4.2L53.67,155l2.24-4.12a106.5,106.5,0,0,0-19.43-7.25l-1.28,5.09-5.73-1.41,1.24-5.05A107.19,107.19,0,0,0,9.37,140l0,5.49H3.44V140H0V256.5H116.5v-8.85Q116.5,244.59,116.33,241.58Z"/><path class="cls-2" d="M0,0V117H3.44v-5.5H9.51l0,5.51a129.93,129.93,0,0,1,26.71,2.88l1.38-5.62,5.9,1.45-1.4,5.57a129.15,129.15,0,0,1,24.86,9.36l3-5.53L75.29,128l-3,5.43a131.08,131.08,0,0,1,21.13,14.68l3.88-4.5,4.59,4-4,4.54a132.27,132.27,0,0,1,18,20.77l5-3.32,3.34,5.08-5,3.27a130,130,0,0,1,11.91,23.94l5.32-1.84,2,5.74-5.31,1.81a129.81,129.81,0,0,1,5.54,26.1l5.94-.49.49,6-5.94.49c.16,2.63.25,5.28.25,8v8.85h117V0Z"/><path class="cls-1" d="M31.43,139.32l4.06-16.52a127.46,127.46,0,0,0-26-2.79l-.08,17A110.44,110.44,0,0,1,31.43,139.32Z"/><path class="cls-3" d="M114.29,214.07l16.09-5.48q-.93-2.88-2-5.7l-16.07,5.57C113,210.3,113.68,212.18,114.29,214.07Z"/><path class="cls-3" d="M102.56,188.87l14.24-9.26c-1.07-1.7-2.19-3.38-3.34-5l-14.2,9.34Q101,186.34,102.56,188.87Z"/><path class="cls-3" d="M145.19,239.2l-.49-6-5.94.49q.31,3,.49,6Z"/><path class="cls-3" d="M9.49,117l0-5.51H3.44V117H9.49Z"/><path class="cls-3" d="M119.32,241.33l16.94-1.4q-.18-3-.49-6l-17,1.39Q119.14,238.33,119.32,241.33Z"/><path class="cls-3" d="M84.77,167.23,96,154.43q-2.19-2.06-4.5-4L80.34,163.27Q82.6,165.19,84.77,167.23Z"/><path class="cls-3" d="M62.62,151l8.22-14.88q-2.64-1.46-5.34-2.81l-8.15,14.93Q60,149.53,62.62,151Z"/><path class="cls-3" d="M106.35,216.77l5.1-1.73q-.92-2.83-2-5.6l-5.07,1.75Z"/><path class="cls-3" d="M95.85,193.23l4.19-2.72c-1.05-1.68-2.15-3.32-3.29-4.94L92.6,188.3Z"/><path class="cls-3" d="M37.21,140.69l4.14-16.49c-1.93-.51-3.89-1-5.86-1.4l-4.06,16.52C33.38,139.72,35.3,140.18,37.21,140.69Z"/><path class="cls-3" d="M111.3,242l5-.41q-.18-3-.51-6l-5,.41Z"/><path class="cls-3" d="M8.85,137h.54l.08-17h-6v17Z"/><path class="cls-3" d="M79.52,173.23l3.28-3.74q-2.16-2-4.42-4l-3.32,3.84Z"/><path class="cls-3" d="M58.85,157.8l2.32-4.2c-1.73-1-3.48-1.88-5.26-2.75L53.67,155Z"/><path class="cls-3" d="M43.48,115.72l-5.9-1.45-1.38,5.62q3,.63,5.88,1.4Z"/><path class="cls-3" d="M9.34,145.5l0-5.49H3.44v5.5Z"/><path class="cls-3" d="M35.2,148.69l1.28-5.09q-2.85-.75-5.77-1.37l-1.24,5.05Z"/><path class="cls-3" d="M75.29,128,70,125.12l-3,5.53q2.72,1.35,5.35,2.82Z"/><path class="cls-3" d="M124.35,174.7,121,169.62l-5,3.32q1.73,2.48,3.35,5Z"/><path class="cls-3" d="M101.89,147.63l-4.59-4-3.88,4.5c1.53,1.3,3,2.64,4.51,4Z"/><path class="cls-3" d="M138.53,205.81l-2-5.74-5.32,1.84c.71,1.88,1.37,3.79,2,5.71Z"/><path class="cls-4" d="M139.25,239.69q-.18-3-.49-6a129.81,129.81,0,0,0-5.54-26.1c-.62-1.92-1.28-3.83-2-5.71A130,130,0,0,0,119.32,178q-1.62-2.55-3.35-5a132.27,132.27,0,0,0-18-20.77c-1.47-1.38-3-2.72-4.51-4a131.08,131.08,0,0,0-21.13-14.68q-2.64-1.47-5.35-2.82a129.15,129.15,0,0,0-24.86-9.36q-2.91-.77-5.88-1.4A129.93,129.93,0,0,0,9.49,117H0v3H9.47a127.46,127.46,0,0,1,26,2.79c2,.42,3.93.89,5.86,1.4a127.13,127.13,0,0,1,24.15,9.08q2.7,1.35,5.34,2.81a128.71,128.71,0,0,1,20.61,14.32q2.31,2,4.5,4a128,128,0,0,1,17.51,20.16c1.15,1.64,2.27,3.32,3.34,5a126.37,126.37,0,0,1,11.59,23.28q1.06,2.82,2,5.7A126.8,126.8,0,0,1,135.77,234q.31,3,.49,6c.15,2.56.24,5.13.24,7.72v8.85h3v-8.85C139.5,245,139.41,242.32,139.25,239.69Z"/><path class="cls-4" d="M119.32,241.33q-.18-3-.51-6a109.62,109.62,0,0,0-4.52-21.29c-.61-1.89-1.26-3.77-2-5.61a110.14,110.14,0,0,0-9.76-19.59q-1.59-2.52-3.3-4.94a112,112,0,0,0-14.49-16.7q-2.16-2-4.43-4A111.57,111.57,0,0,0,62.62,151q-2.59-1.44-5.27-2.76a109.78,109.78,0,0,0-20.14-7.52c-1.91-.51-3.83-1-5.78-1.37a110.44,110.44,0,0,0-22-2.31H0v3H9.37a107.19,107.19,0,0,1,21.34,2.22q2.92.61,5.77,1.37a106.5,106.5,0,0,1,19.43,7.25c1.78.87,3.53,1.78,5.26,2.75a108,108,0,0,1,17.21,11.93q2.27,1.92,4.42,4a108,108,0,0,1,14,16.08c1.14,1.62,2.24,3.26,3.29,4.94a107.55,107.55,0,0,1,9.45,18.93q1,2.76,2,5.6a106.82,106.82,0,0,1,4.37,20.57q.33,3,.51,6t.17,6.07v8.85h3v-8.85C119.5,245.53,119.43,243.42,119.32,241.33Z"/><path class="cls-1" d="M0,120H9.47a127.46,127.46,0,0,1,26,2.79c2,.42,3.93.89,5.86,1.4a127.13,127.13,0,0,1,24.15,9.08q2.7,1.35,5.34,2.81a128.71,128.71,0,0,1,20.61,14.32q2.31,2,4.5,4a128,128,0,0,1,17.51,20.16c1.15,1.64,2.27,3.32,3.34,5a126.37,126.37,0,0,1,11.59,23.28q1.06,2.82,2,5.7A126.8,126.8,0,0,1,135.77,234q.31,3,.49,6c.15,2.56.24,5.13.24,7.72v8.85"/><path class="cls-1" d="M139.5,256.5v-8.85c0-2.68-.09-5.33-.25-8q-.18-3-.49-6a129.81,129.81,0,0,0-5.54-26.1c-.62-1.92-1.28-3.83-2-5.71A130,130,0,0,0,119.32,178q-1.62-2.55-3.35-5a132.27,132.27,0,0,0-18-20.77c-1.47-1.38-3-2.72-4.51-4a131.08,131.08,0,0,0-21.13-14.68q-2.64-1.47-5.35-2.82a129.15,129.15,0,0,0-24.86-9.36q-2.91-.77-5.88-1.4A129.93,129.93,0,0,0,9.49,117H0"/><path class="cls-1" d="M0,140H9.37a107.19,107.19,0,0,1,21.34,2.22q2.92.61,5.77,1.37a106.5,106.5,0,0,1,19.43,7.25c1.78.87,3.53,1.78,5.26,2.75a108,108,0,0,1,17.21,11.93q2.27,1.92,4.42,4a108,108,0,0,1,14,16.08c1.14,1.62,2.24,3.26,3.29,4.94a107.55,107.55,0,0,1,9.45,18.93q1,2.76,2,5.6a106.82,106.82,0,0,1,4.37,20.57q.33,3,.51,6t.17,6.07v8.85"/><path class="cls-1" d="M119.5,256.5v-8.85c0-2.12-.07-4.23-.18-6.32s-.29-4-.51-6a109.62,109.62,0,0,0-4.52-21.29c-.61-1.89-1.26-3.77-2-5.61a110.14,110.14,0,0,0-9.76-19.59q-1.59-2.52-3.3-4.94a112,112,0,0,0-14.49-16.7q-2.16-2-4.43-4A111.57,111.57,0,0,0,62.62,151q-2.59-1.44-5.27-2.76a109.78,109.78,0,0,0-20.14-7.52c-1.91-.51-3.83-1-5.78-1.37a110.44,110.44,0,0,0-22-2.31H0"/></g></g></svg>