<svg xmlns="http://www.w3.org/2000/svg" viewBox="0 0 101.25 662.33"><defs><style>.cls-1,.cls-2,.cls-3,.cls-4{fill:none;stroke-miterlimit:10;}.cls-1,.cls-2{stroke:#754c24;stroke-width:34px;}.cls-2{stroke-dasharray:5.89 23.56;}.cls-3{stroke:#000;stroke-width:5px;}.cls-4{stroke:#ccc;stroke-width:3px;}</style></defs><title>zig-zag-vert</title><g id="Calque_2" data-name="Calque 2"><g id="Calque_3" data-name="Calque 3"><g id="Calque_1-2" data-name="Calque 1"><path class="cls-1" d="M82.57,12.24c-.72.69-1.43,1.38-2.15,2.09"/><path class="cls-2" d="M64.17,31.38c-25.93,29.32-48.83,67-45.6,108.86,4.41,57.17,53.47,68,64,128,12.94,73.73-52.72,105.71-64,192-5.41,41.39.91,101.28,55.4,180"/><path class="cls-1" d="M80.8,649.82c.58.8,1.17,1.61,1.77,2.42"/><path class="cls-3" d="M74.52,658.17C22.72,587.92.56,520.89,8.65,458.94c5.4-41.31,22.71-70.86,38-96.93C64.07,332.23,79.13,306.5,72.72,270c-4.69-26.7-17.56-42.5-31.19-59.22C26.57,192.38,11.1,173.4,8.6,141,5.2,97,27.75,51.21,75.63,5L89.51,19.43c-43.37,41.84-63.89,82.22-61,120,2,26.15,14.29,41.2,28.5,58.64,14,17.13,29.79,36.55,35.38,68.4,7.68,43.77-9.91,73.8-28.53,105.6-15,25.63-30.53,52.13-35.41,89.42C21.08,518.19,42,580.35,90.62,646.3Z"/><path class="cls-4" d="M74.52,658.17C22.72,587.92.56,520.89,8.65,458.94c5.4-41.31,22.71-70.86,38-96.93C64.07,332.23,79.13,306.5,72.72,270c-4.69-26.7-17.56-42.5-31.19-59.22C26.57,192.38,11.1,173.4,8.6,141,5.2,97,27.75,51.21,75.63,5L89.51,19.43c-43.37,41.84-63.89,82.22-61,120,2,26.15,14.29,41.2,28.5,58.64,14,17.13,29.79,36.55,35.38,68.4,7.68,43.77-9.91,73.8-28.53,105.6-15,25.63-30.53,52.13-35.41,89.42C21.08,518.19,42,580.35,90.62,646.3Z"/><path class="cls-3" d="M74.52,658.17C22.72,587.92.56,520.89,8.65,458.94c5.4-41.31,22.71-70.86,38-96.93C64.07,332.23,79.13,306.5,72.72,270c-4.69-26.7-17.56-42.5-31.19-59.22C26.57,192.38,11.1,173.4,8.6,141,5.2,97,27.75,51.21,75.63,5L89.51,19.43c-43.37,41.84-63.89,82.22-61,120,2,26.15,14.29,41.2,28.5,58.64,14,17.13,29.79,36.55,35.38,68.4,7.68,43.77-9.91,73.8-28.53,105.6-15,25.63-30.53,52.13-35.41,89.42C21.08,518.19,42,580.35,90.62,646.3Z"/><path class="cls-4" d="M74.52,658.17C22.72,587.92.56,520.89,8.65,458.94c5.4-41.31,22.71-70.86,38-96.93C64.07,332.23,79.13,306.5,72.72,270c-4.69-26.7-17.56-42.5-31.19-59.22C26.57,192.38,11.1,173.4,8.6,141,5.2,97,27.75,51.21,75.63,5L89.51,19.43c-43.37,41.84-63.89,82.22-61,120,2,26.15,14.29,41.2,28.5,58.64,14,17.13,29.79,36.55,35.38,68.4,7.68,43.77-9.91,73.8-28.53,105.6-15,25.63-30.53,52.13-35.41,89.42C21.08,518.19,42,580.35,90.62,646.3Z"/></g></g></g></svg>