<svg xmlns="http://www.w3.org/2000/svg" viewBox="0 0 1541 81"><defs><style>.cls-1,.cls-2,.cls-3,.cls-4{fill:none;stroke-miterlimit:10;}.cls-1,.cls-2{stroke:#754c24;stroke-width:34px;}.cls-2{stroke-dasharray:6.04 24.17;}.cls-3{stroke:#000;stroke-width:5px;}.cls-4{stroke:#ccc;stroke-width:3px;}</style></defs><title>zig-zag-hor</title><g id="Calque_2" data-name="Calque 2"><g id="Calque_3" data-name="Calque 3"><g id="Calque_1-2" data-name="Calque 1"><path class="cls-1" d="M2.5,48h3"/><path class="cls-2" d="M29.66,48h167.4c70.2,0,175.61-31,268.44-31,201.3,0,422.61,47,625,47,98,0,184-16,257.13-16h175.78"/><path class="cls-1" d="M1535.5,48h3"/><path class="cls-3" d="M1090.5,74C988.61,74,880.56,62,776.06,50.39,672.52,38.89,565.46,27,465.5,27c-48.82,0-100.66,8.63-150.8,17-43.28,7.21-84.16,14-117.64,14H2.5V38H197.06c31.82,0,71.91-6.68,114.36-13.75C362.35,15.77,415,7,465.5,7,566.57,7,674.19,19,778.27,30.51S989.72,54,1090.5,54c52.12,0,100-4.49,146.29-8.83,39.32-3.69,76.45-7.17,110.84-7.17H1538.5V58H1347.63c-33.45,0-70.14,3.44-109,7.08C1194.08,69.26,1143.56,74,1090.5,74Z"/><path class="cls-4" d="M1090.5,74C988.61,74,880.56,62,776.06,50.39,672.52,38.89,565.46,27,465.5,27c-48.82,0-100.66,8.63-150.8,17-43.28,7.21-84.16,14-117.64,14H2.5V38H197.06c31.82,0,71.91-6.68,114.36-13.75C362.35,15.77,415,7,465.5,7,566.57,7,674.19,19,778.27,30.51S989.72,54,1090.5,54c52.12,0,100-4.49,146.29-8.83,39.32-3.69,76.45-7.17,110.84-7.17H1538.5V58H1347.63c-33.45,0-70.14,3.44-109,7.08C1194.08,69.26,1143.56,74,1090.5,74Z"/><path class="cls-3" d="M1090.5,74C988.61,74,880.56,62,776.06,50.39,672.52,38.89,565.46,27,465.5,27c-48.82,0-100.66,8.63-150.8,17-43.28,7.21-84.16,14-117.64,14H2.5V38H197.06c31.82,0,71.91-6.68,114.36-13.75C362.35,15.77,415,7,465.5,7,566.57,7,674.19,19,778.27,30.51S989.72,54,1090.5,54c52.12,0,100-4.49,146.29-8.83,39.32-3.69,76.45-7.17,110.84-7.17H1538.5V58H1347.63c-33.45,0-70.14,3.44-109,7.08C1194.08,69.26,1143.56,74,1090.5,74Z"/><path class="cls-4" d="M1090.5,74C988.61,74,880.56,62,776.06,50.39,672.52,38.89,565.46,27,465.5,27c-48.82,0-100.66,8.63-150.8,17-43.28,7.21-84.16,14-117.64,14H2.5V38H197.06c31.82,0,71.91-6.68,114.36-13.75C362.35,15.77,415,7,465.5,7,566.57,7,674.19,19,778.27,30.51S989.72,54,1090.5,54c52.12,0,100-4.49,146.29-8.83,39.32-3.69,76.45-7.17,110.84-7.17H1538.5V58H1347.63c-33.45,0-70.14,3.44-109,7.08C1194.08,69.26,1143.56,74,1090.5,74Z"/></g></g></g></svg>